<?xml version="1.0" encoding="UTF-8"?>
<!DOCTYPE svg PUBLIC "-//W3C//DTD SVG 1.1//EN" "http://www.w3.org/Graphics/SVG/1.1/DTD/svg11.dtd">
<!-- Creator: CorelDRAW 2021.5 -->
<svg xmlns="http://www.w3.org/2000/svg" xml:space="preserve" width="1920px" height="1080px" version="1.1" style="shape-rendering:geometricPrecision; text-rendering:geometricPrecision; image-rendering:optimizeQuality; fill-rule:evenodd; clip-rule:evenodd"
viewBox="0 0 1920 1080"
 xmlns:xlink="http://www.w3.org/1999/xlink"
 xmlns:xodm="http://www.corel.com/coreldraw/odm/2003">
 <defs>
  <style type="text/css">
   <![CDATA[
    .fil0 {fill:none}
    .fil1 {fill:#203185}
    .fil2 {fill:#FFB300}
   ]]>
  </style>
    <mask id="id0">
  <linearGradient id="id1" gradientUnits="userSpaceOnUse" x1="962.34" y1="547.39" x2="960.46" y2="543.64">
   <stop offset="0" style="stop-opacity:1; stop-color:white"/>
   <stop offset="0.321569" style="stop-opacity:0.501961; stop-color:white"/>
   <stop offset="1" style="stop-opacity:0; stop-color:white"/>
  </linearGradient>
     <rect style="fill:url(#id1)" x="954.87" y="542.21" width="9.03" height="4.3"/>
    </mask>
    <mask id="id2">
  <linearGradient id="id3" gradientUnits="userSpaceOnUse" x1="956.67" y1="532.22" x2="960.07" y2="536.06">
   <stop offset="0" style="stop-opacity:1; stop-color:white"/>
   <stop offset="0.321569" style="stop-opacity:0.501961; stop-color:white"/>
   <stop offset="1" style="stop-opacity:0; stop-color:white"/>
  </linearGradient>
     <rect style="fill:url(#id3)" x="956.42" y="533.15" width="8.83" height="4.64"/>
    </mask>
     <clipPath id="id4">
      <path d="M958.95 533.99l2.89 0 0 2.89 -2.89 0 0 -2.89z"/>
     </clipPath>
 </defs>
 <g id="Layer_x0020_1">
  <metadata id="CorelCorpID_0Corel-Layer"/>
  <rect class="fil0" x="952" y="532" width="16" height="16"/>
  <g id="_3009225832144">
   <path class="fil1" d="M961.82 545.63c0.94,-0.47 1.81,-1.03 2.57,-1.66l0.61 0.61 0 -2.26 -2.26 0 0.62 0.61c-0.06,0.06 -0.13,0.12 -0.22,0.16 -0.09,0.06 -0.19,0.11 -0.28,0.16l-2.63 0 2.32 -6.5 2.32 0 1.72 4.83c1.23,-1.79 1.73,-3.75 1.2,-5.4 -1.01,-3.1 -5.31,-3.91 -9.61,-1.81 -0.59,0.29 -1.14,0.62 -1.66,0.98l-0.86 -0.86 0 1.5 0 0.76 1.84 0 0.42 0 0.78 0 0.96 0 0.9 0 0 3.25c0,2.17 -0.93,3.25 -2.79,3.25l-0.68 0 0 -1.86 0.68 0c0.62,0 0.93,-0.46 0.93,-1.39l0 -1.39 -0.78 0 -0.42 0 -1.21 0 0 4.64 -1.85 0 0 -4.64 -1.16 0c-1.13,1.74 -1.58,3.62 -1.07,5.21 1,3.1 5.31,3.91 9.61,1.81zm1.89 -6.93l-0.64 1.76 1.27 0 -0.63 -1.76z"/>
   <path class="fil1" style="mask:url(#id0)" d="M960.23 543.25l2.63 0c-2.19,1.46 -4.5,2.2 -6.95,2.22 2.45,-0.71 3.89,-1.45 4.32,-2.22z"/>
   <path class="fil1" style="mask:url(#id2)" d="M959.74 536.75l-1.82 0 -0.46 -0.49c2.15,-1.33 4.36,-2.06 6.75,-2.07 -2.4,0.64 -4.05,1.86 -4.47,2.56z"/>
   <g>
    <g style="clip-path:url(#id4)">
     <image x="958.95" y="533.99" width="2.89" height="2.89" xlink:href="fav_Images\fav_ImgID1.png"/>
    </g>
   </g>
   <polygon class="fil2" points="959.51,534.42 961.11,534.42 961.11,536.02 959.51,536.02 "/>
  </g>
 </g>
</svg>
