<?xml version="1.0" encoding="UTF-8"?>
<!DOCTYPE svg PUBLIC "-//W3C//DTD SVG 1.1//EN" "http://www.w3.org/Graphics/SVG/1.1/DTD/svg11.dtd">
<!-- Creator: CorelDRAW 2021.5 -->
<svg xmlns="http://www.w3.org/2000/svg" xml:space="preserve" width="1080px" height="1080px" version="1.1" style="shape-rendering:geometricPrecision; text-rendering:geometricPrecision; image-rendering:optimizeQuality; fill-rule:evenodd; clip-rule:evenodd"
viewBox="0 0 1080 1080"
 xmlns:xlink="http://www.w3.org/1999/xlink"
 xmlns:xodm="http://www.corel.com/coreldraw/odm/2003">
 <defs>
  <style type="text/css">
   <![CDATA[
    .fil2 {fill:#203185}
    .fil3 {fill:#FFB300}
    .fil1 {fill:black;fill-rule:nonzero}
    .fil0 {fill:black;fill-rule:nonzero}
   ]]>
  </style>
 </defs>
 <g id="Layer_x0020_1">
  <metadata id="CorelCorpID_0Corel-Layer"/>
  <g id="_2512819325632">
   <path class="fil0" d="M469.02 537.5l0 -12.27 5.31 0c1.1,0 2.04,0.18 2.84,0.53 0.79,0.36 1.41,0.87 1.84,1.54 0.43,0.66 0.65,1.46 0.65,2.38 0,0.91 -0.22,1.7 -0.65,2.37 -0.43,0.66 -1.05,1.17 -1.84,1.53 -0.8,0.36 -1.74,0.54 -2.84,0.54l-3.74 0 1.27 -1.28 0 4.66 -2.84 0zm2.84 -4.35l-1.27 -1.35 3.58 0c0.88,0 1.53,-0.19 1.96,-0.56 0.44,-0.37 0.65,-0.89 0.65,-1.56 0,-0.68 -0.21,-1.2 -0.65,-1.58 -0.43,-0.37 -1.08,-0.56 -1.96,-0.56l-3.58 0 1.27 -1.35 0 6.96z"/>
   <polygon id="_1" class="fil0" points="483.76,537.5 483.74,527.54 479.82,527.54 479.82,525.23 490.49,525.23 490.51,527.54 486.57,527.54 486.58,537.5 "/>
   <path id="_2" class="fil0" d="M492.16 537.64c-0.47,0 -0.87,-0.16 -1.2,-0.48 -0.33,-0.32 -0.5,-0.74 -0.5,-1.24 0,-0.5 0.17,-0.91 0.5,-1.22 0.33,-0.31 0.73,-0.46 1.2,-0.46 0.48,0 0.88,0.15 1.21,0.46 0.33,0.31 0.49,0.72 0.49,1.22 0,0.5 -0.16,0.92 -0.49,1.24 -0.33,0.32 -0.73,0.48 -1.21,0.48z"/>
   <polygon id="_3" class="fil0" points="500.89,537.5 500.88,527.54 496.95,527.54 496.95,525.23 507.63,525.23 507.64,527.54 503.7,527.54 503.72,537.5 "/>
   <path id="_4" class="fil0" d="M514.15 537.5l0 -1.84 -0.18 -0.41 0 -3.29c0,-0.58 -0.18,-1.04 -0.53,-1.37 -0.36,-0.32 -0.9,-0.49 -1.64,-0.49 -0.5,0 -1,0.08 -1.48,0.24 -0.49,0.16 -0.9,0.37 -1.24,0.64l-0.98 -1.91c0.51,-0.36 1.13,-0.65 1.86,-0.84 0.72,-0.2 1.46,-0.3 2.21,-0.3 1.43,0 2.55,0.34 3.35,1.01 0.79,0.68 1.19,1.74 1.19,3.18l0 5.38 -2.56 0zm-2.88 0.14c-0.73,0 -1.36,-0.13 -1.89,-0.38 -0.53,-0.25 -0.93,-0.59 -1.21,-1.02 -0.28,-0.44 -0.42,-0.92 -0.42,-1.46 0,-0.56 0.14,-1.05 0.41,-1.47 0.28,-0.42 0.71,-0.75 1.31,-0.99 0.59,-0.24 1.37,-0.36 2.33,-0.36l2.51 0 0 1.59 -2.21 0c-0.64,0 -1.09,0.11 -1.33,0.32 -0.24,0.21 -0.36,0.47 -0.36,0.79 0,0.35 0.14,0.63 0.42,0.83 0.27,0.21 0.65,0.31 1.13,0.31 0.45,0 0.86,-0.11 1.22,-0.33 0.37,-0.21 0.63,-0.53 0.79,-0.95l0.42 1.26c-0.19,0.61 -0.56,1.07 -1.08,1.39 -0.53,0.31 -1.21,0.47 -2.04,0.47z"/>
   <path id="_5" class="fil0" d="M523.67 537.64c-1.02,0 -1.92,-0.21 -2.72,-0.62 -0.79,-0.42 -1.42,-0.99 -1.87,-1.73 -0.45,-0.74 -0.67,-1.57 -0.67,-2.51 0,-0.94 0.22,-1.78 0.67,-2.51 0.45,-0.73 1.08,-1.31 1.87,-1.72 0.8,-0.42 1.7,-0.62 2.72,-0.62 0.99,0 1.86,0.2 2.59,0.62 0.74,0.41 1.28,1.01 1.63,1.78l-2.12 1.14c-0.24,-0.45 -0.55,-0.77 -0.92,-0.98 -0.37,-0.21 -0.77,-0.32 -1.2,-0.32 -0.47,0 -0.89,0.11 -1.26,0.32 -0.38,0.21 -0.67,0.51 -0.89,0.89 -0.21,0.39 -0.32,0.85 -0.32,1.4 0,0.55 0.11,1.02 0.32,1.41 0.22,0.38 0.51,0.68 0.89,0.89 0.37,0.21 0.79,0.31 1.26,0.31 0.43,0 0.83,-0.1 1.2,-0.3 0.37,-0.21 0.68,-0.54 0.92,-0.99l2.12 1.15c-0.35,0.76 -0.89,1.35 -1.63,1.77 -0.73,0.41 -1.6,0.62 -2.59,0.62z"/>
   <path id="_6" class="fil0" d="M534.99 527.93c0.75,0 1.42,0.15 2.01,0.44 0.59,0.3 1.05,0.76 1.39,1.37 0.34,0.62 0.51,1.4 0.51,2.36l0 5.4 -2.73 0 0 -4.98c0,-0.76 -0.17,-1.32 -0.5,-1.68 -0.34,-0.36 -0.8,-0.55 -1.41,-0.55 -0.43,0 -0.82,0.09 -1.17,0.28 -0.34,0.18 -0.61,0.45 -0.8,0.83 -0.2,0.37 -0.29,0.85 -0.29,1.44l0 4.66 -2.74 0 0 -13.01 2.74 0 0 6.19 -0.62 -0.79c0.34,-0.63 0.83,-1.12 1.46,-1.45 0.63,-0.34 1.35,-0.51 2.15,-0.51z"/>
   <path id="_7" class="fil0" d="M541.27 537.5l-0.03 -9.43 2.71 0.02 0.02 9.41 -2.7 0zm1.33 -10.75c-0.5,0 -0.91,-0.14 -1.23,-0.44 -0.31,-0.29 -0.47,-0.65 -0.47,-1.08 0,-0.43 0.16,-0.8 0.47,-1.09 0.32,-0.29 0.73,-0.44 1.23,-0.44 0.51,0 0.91,0.14 1.23,0.42 0.31,0.27 0.47,0.62 0.47,1.06 0,0.45 -0.15,0.83 -0.46,1.13 -0.31,0.29 -0.72,0.44 -1.24,0.44z"/>
   <path id="_8" class="fil0" d="M552.11 527.93c0.74,0 1.41,0.15 2,0.44 0.59,0.3 1.06,0.76 1.4,1.37 0.33,0.62 0.5,1.4 0.5,2.36l0 5.4 -2.73 0 0 -4.98c0,-0.76 -0.17,-1.32 -0.5,-1.68 -0.33,-0.36 -0.8,-0.55 -1.41,-0.55 -0.43,0 -0.82,0.09 -1.17,0.28 -0.34,0.18 -0.61,0.45 -0.8,0.83 -0.2,0.37 -0.29,0.85 -0.29,1.44l0 4.66 -2.74 0 0 -9.43 2.61 0 0 2.61 -0.49 -0.79c0.34,-0.63 0.83,-1.12 1.46,-1.45 0.63,-0.34 1.35,-0.51 2.16,-0.51z"/>
   <path id="_9" class="fil0" d="M564.13 537.5l0 -1.84 -0.17 -0.41 0 -3.29c0,-0.58 -0.18,-1.04 -0.54,-1.37 -0.36,-0.32 -0.9,-0.49 -1.64,-0.49 -0.5,0 -0.99,0.08 -1.48,0.24 -0.48,0.16 -0.9,0.37 -1.23,0.64l-0.99 -1.91c0.52,-0.36 1.14,-0.65 1.86,-0.84 0.73,-0.2 1.46,-0.3 2.21,-0.3 1.44,0 2.55,0.34 3.35,1.01 0.79,0.68 1.19,1.74 1.19,3.18l0 5.38 -2.56 0zm-2.87 0.14c-0.74,0 -1.37,-0.13 -1.9,-0.38 -0.52,-0.25 -0.93,-0.59 -1.21,-1.02 -0.28,-0.44 -0.42,-0.92 -0.42,-1.46 0,-0.56 0.14,-1.05 0.42,-1.47 0.27,-0.42 0.71,-0.75 1.3,-0.99 0.6,-0.24 1.37,-0.36 2.33,-0.36l2.51 0 0 1.59 -2.21 0c-0.64,0 -1.08,0.11 -1.32,0.32 -0.24,0.21 -0.36,0.47 -0.36,0.79 0,0.35 0.13,0.63 0.41,0.83 0.27,0.21 0.65,0.31 1.13,0.31 0.46,0 0.86,-0.11 1.23,-0.33 0.36,-0.21 0.62,-0.53 0.79,-0.95l0.42 1.26c-0.2,0.61 -0.56,1.07 -1.09,1.39 -0.53,0.31 -1.2,0.47 -2.03,0.47z"/>
   <path id="_10" class="fil0" d="M569.02 537.5l0 -9.43 2.62 0 0 2.66 -0.37 -0.77c0.28,-0.67 0.73,-1.17 1.35,-1.51 0.62,-0.35 1.37,-0.52 2.26,-0.52l0 2.52c-0.12,-0.01 -0.22,-0.02 -0.32,-0.02 -0.09,-0.01 -0.19,-0.01 -0.3,-0.01 -0.74,0 -1.35,0.21 -1.81,0.64 -0.46,0.42 -0.69,1.09 -0.69,1.99l0 4.45 -2.74 0z"/>
   <path id="_11" class="fil0" d="M580.33 537.64c-0.89,0 -1.69,-0.2 -2.4,-0.61 -0.71,-0.4 -1.28,-0.96 -1.69,-1.69 -0.42,-0.72 -0.62,-1.58 -0.62,-2.56 0,-0.99 0.2,-1.85 0.62,-2.57 0.41,-0.73 0.98,-1.29 1.69,-1.69 0.71,-0.39 1.51,-0.59 2.4,-0.59 0.8,0 1.49,0.17 2.09,0.52 0.59,0.35 1.06,0.89 1.38,1.6 0.33,0.71 0.49,1.62 0.49,2.73 0,1.1 -0.15,2.01 -0.47,2.73 -0.32,0.72 -0.77,1.25 -1.36,1.6 -0.59,0.35 -1.3,0.53 -2.13,0.53zm0.48 -2.25c0.44,0 0.84,-0.1 1.21,-0.31 0.36,-0.21 0.65,-0.51 0.86,-0.9 0.22,-0.39 0.33,-0.86 0.33,-1.4 0,-0.55 -0.11,-1.01 -0.33,-1.4 -0.21,-0.38 -0.5,-0.68 -0.86,-0.89 -0.37,-0.21 -0.77,-0.32 -1.21,-0.32 -0.46,0 -0.87,0.11 -1.23,0.32 -0.36,0.21 -0.65,0.51 -0.87,0.89 -0.22,0.39 -0.32,0.85 -0.32,1.4 0,0.54 0.1,1.01 0.32,1.4 0.22,0.39 0.51,0.69 0.87,0.9 0.36,0.21 0.77,0.31 1.23,0.31zm2.47 2.11l0 -1.93 0.05 -2.8 -0.18 -2.79 0 -5.49 2.74 0 0 13.01 -2.61 0z"/>
   <path id="_12" class="fil0" d="M588.31 537.5l-0.03 -9.43 2.71 0.02 0.02 9.41 -2.7 0zm1.33 -10.75c-0.5,0 -0.91,-0.14 -1.23,-0.44 -0.31,-0.29 -0.47,-0.65 -0.47,-1.08 0,-0.43 0.16,-0.8 0.47,-1.09 0.32,-0.29 0.73,-0.44 1.23,-0.44 0.5,0 0.91,0.14 1.23,0.42 0.31,0.27 0.47,0.62 0.47,1.06 0,0.45 -0.15,0.83 -0.46,1.13 -0.31,0.29 -0.72,0.44 -1.24,0.44z"/>
   <path id="_13" class="fil0" d="M598.43 537.71c-0.83,0 -1.59,-0.16 -2.29,-0.47 -0.69,-0.3 -1.26,-0.75 -1.71,-1.32l1.58 -1.89c0.34,0.44 0.7,0.78 1.07,1.01 0.37,0.22 0.78,0.34 1.21,0.34 1.16,0 1.73,-0.68 1.73,-2.04l0 -5.83 -4.31 0 0 -2.28 7.14 0 0 7.96c0,1.52 -0.38,2.65 -1.13,3.4 -0.74,0.74 -1.84,1.12 -3.29,1.12z"/>
   <path id="_14" class="fil0" d="M611.1 537.5l0 -1.84 -0.17 -0.41 0 -3.29c0,-0.58 -0.18,-1.04 -0.54,-1.37 -0.35,-0.32 -0.9,-0.49 -1.63,-0.49 -0.51,0 -1,0.08 -1.49,0.24 -0.48,0.16 -0.89,0.37 -1.23,0.64l-0.98 -1.91c0.51,-0.36 1.13,-0.65 1.86,-0.84 0.72,-0.2 1.46,-0.3 2.2,-0.3 1.44,0 2.56,0.34 3.35,1.01 0.8,0.68 1.19,1.74 1.19,3.18l0 5.38 -2.56 0zm-2.87 0.14c-0.74,0 -1.37,-0.13 -1.89,-0.38 -0.53,-0.25 -0.93,-0.59 -1.21,-1.02 -0.28,-0.44 -0.42,-0.92 -0.42,-1.46 0,-0.56 0.13,-1.05 0.41,-1.47 0.27,-0.42 0.71,-0.75 1.31,-0.99 0.59,-0.24 1.37,-0.36 2.33,-0.36l2.5 0 0 1.59 -2.21 0c-0.64,0 -1.08,0.11 -1.32,0.32 -0.24,0.21 -0.36,0.47 -0.36,0.79 0,0.35 0.14,0.63 0.41,0.83 0.28,0.21 0.65,0.31 1.13,0.31 0.46,0 0.87,-0.11 1.23,-0.33 0.36,-0.21 0.63,-0.53 0.79,-0.95l0.42 1.26c-0.2,0.61 -0.56,1.07 -1.09,1.39 -0.52,0.31 -1.2,0.47 -2.03,0.47z"/>
   <path id="_15" class="fil0" d="M617.01 541.04c-0.49,0 -0.97,-0.08 -1.45,-0.23 -0.48,-0.15 -0.87,-0.36 -1.18,-0.63l1 -1.95c0.21,0.19 0.46,0.34 0.73,0.44 0.28,0.11 0.55,0.16 0.82,0.16 0.38,0 0.69,-0.09 0.92,-0.27 0.22,-0.18 0.43,-0.48 0.62,-0.9l0.49 -1.16 0.21 -0.3 3.38 -8.13 2.63 0 -4.26 10.01c-0.3,0.76 -0.65,1.35 -1.04,1.79 -0.39,0.43 -0.82,0.73 -1.3,0.91 -0.47,0.17 -0.99,0.26 -1.57,0.26zm1.62 -3.17l-4.21 -9.8 2.82 0 3.26 7.89 -1.87 1.91z"/>
   <path id="_16" class="fil0" d="M631.63 537.5l0 -1.84 -0.17 -0.41 0 -3.29c0,-0.58 -0.18,-1.04 -0.54,-1.37 -0.35,-0.32 -0.9,-0.49 -1.63,-0.49 -0.51,0 -1,0.08 -1.49,0.24 -0.48,0.16 -0.89,0.37 -1.23,0.64l-0.98 -1.91c0.51,-0.36 1.13,-0.65 1.86,-0.84 0.72,-0.2 1.46,-0.3 2.2,-0.3 1.44,0 2.56,0.34 3.35,1.01 0.8,0.68 1.19,1.74 1.19,3.18l0 5.38 -2.56 0zm-2.87 0.14c-0.74,0 -1.37,-0.13 -1.89,-0.38 -0.53,-0.25 -0.93,-0.59 -1.21,-1.02 -0.28,-0.44 -0.42,-0.92 -0.42,-1.46 0,-0.56 0.13,-1.05 0.41,-1.47 0.27,-0.42 0.71,-0.75 1.31,-0.99 0.59,-0.24 1.37,-0.36 2.33,-0.36l2.5 0 0 1.59 -2.21 0c-0.64,0 -1.08,0.11 -1.32,0.32 -0.24,0.21 -0.36,0.47 -0.36,0.79 0,0.35 0.14,0.63 0.41,0.83 0.28,0.21 0.65,0.31 1.13,0.31 0.46,0 0.87,-0.11 1.23,-0.33 0.36,-0.21 0.63,-0.53 0.79,-0.95l0.42 1.26c-0.2,0.61 -0.56,1.07 -1.09,1.39 -0.52,0.31 -1.2,0.47 -2.03,0.47z"/>
   <path id="_17" class="fil0" d="M637.67 537.5l5.47 -12.27 2.8 0 5.49 12.27 -2.98 0 -4.49 -10.83 1.13 0 -4.51 10.83 -2.91 0zm2.74 -2.63l0.75 -2.16 6.31 0 0.77 2.16 -7.83 0z"/>
   <path id="_18" class="fil0" d="M657.95 537.64c-0.83,0 -1.54,-0.18 -2.14,-0.53 -0.59,-0.35 -1.05,-0.88 -1.36,-1.6 -0.32,-0.72 -0.48,-1.63 -0.48,-2.73 0,-1.11 0.17,-2.02 0.5,-2.73 0.34,-0.71 0.8,-1.25 1.4,-1.6 0.59,-0.35 1.29,-0.52 2.08,-0.52 0.89,0 1.69,0.2 2.39,0.59 0.71,0.4 1.27,0.96 1.69,1.69 0.41,0.72 0.62,1.58 0.62,2.57 0,0.98 -0.21,1.84 -0.62,2.56 -0.42,0.73 -0.98,1.29 -1.69,1.69 -0.7,0.41 -1.5,0.61 -2.39,0.61zm-5.57 -0.14l0 -13.01 2.73 0 0 5.49 -0.17 2.79 0.05 2.8 0 1.93 -2.61 0zm5.1 -2.11c0.45,0 0.86,-0.1 1.22,-0.31 0.35,-0.21 0.64,-0.51 0.86,-0.9 0.21,-0.39 0.32,-0.86 0.32,-1.4 0,-0.55 -0.11,-1.01 -0.32,-1.4 -0.22,-0.38 -0.51,-0.68 -0.86,-0.89 -0.36,-0.21 -0.77,-0.32 -1.22,-0.32 -0.46,0 -0.87,0.11 -1.23,0.32 -0.36,0.21 -0.65,0.51 -0.86,0.89 -0.21,0.39 -0.31,0.85 -0.31,1.4 0,0.54 0.1,1.01 0.31,1.4 0.21,0.39 0.5,0.69 0.86,0.9 0.36,0.21 0.77,0.31 1.23,0.31z"/>
   <path id="_19" class="fil0" d="M669.96 537.5l0 -1.84 -0.17 -0.41 0 -3.29c0,-0.58 -0.18,-1.04 -0.54,-1.37 -0.36,-0.32 -0.9,-0.49 -1.64,-0.49 -0.5,0 -0.99,0.08 -1.48,0.24 -0.48,0.16 -0.9,0.37 -1.23,0.64l-0.99 -1.91c0.52,-0.36 1.14,-0.65 1.86,-0.84 0.73,-0.2 1.46,-0.3 2.21,-0.3 1.44,0 2.55,0.34 3.35,1.01 0.79,0.68 1.19,1.74 1.19,3.18l0 5.38 -2.56 0zm-2.87 0.14c-0.74,0 -1.37,-0.13 -1.9,-0.38 -0.52,-0.25 -0.93,-0.59 -1.21,-1.02 -0.28,-0.44 -0.42,-0.92 -0.42,-1.46 0,-0.56 0.14,-1.05 0.42,-1.47 0.27,-0.42 0.71,-0.75 1.3,-0.99 0.6,-0.24 1.37,-0.36 2.33,-0.36l2.51 0 0 1.59 -2.21 0c-0.64,0 -1.08,0.11 -1.32,0.32 -0.24,0.21 -0.36,0.47 -0.36,0.79 0,0.35 0.13,0.63 0.41,0.83 0.27,0.21 0.65,0.31 1.13,0.31 0.46,0 0.87,-0.11 1.23,-0.33 0.36,-0.21 0.62,-0.53 0.79,-0.95l0.42 1.26c-0.2,0.61 -0.56,1.07 -1.09,1.39 -0.53,0.31 -1.2,0.47 -2.03,0.47z"/>
   <path id="_20" class="fil0" d="M678.97 537.64c-0.88,0 -1.69,-0.2 -2.4,-0.61 -0.71,-0.4 -1.27,-0.96 -1.69,-1.69 -0.42,-0.72 -0.62,-1.58 -0.62,-2.56 0,-0.99 0.2,-1.85 0.62,-2.57 0.42,-0.73 0.98,-1.29 1.69,-1.69 0.71,-0.39 1.52,-0.59 2.4,-0.59 0.8,0 1.49,0.17 2.09,0.52 0.59,0.35 1.06,0.89 1.38,1.6 0.33,0.71 0.49,1.62 0.49,2.73 0,1.1 -0.15,2.01 -0.47,2.73 -0.31,0.72 -0.77,1.25 -1.36,1.6 -0.59,0.35 -1.3,0.53 -2.13,0.53zm0.48 -2.25c0.44,0 0.84,-0.1 1.21,-0.31 0.36,-0.21 0.65,-0.51 0.86,-0.9 0.22,-0.39 0.33,-0.86 0.33,-1.4 0,-0.55 -0.11,-1.01 -0.33,-1.4 -0.21,-0.38 -0.5,-0.68 -0.86,-0.89 -0.37,-0.21 -0.77,-0.32 -1.21,-0.32 -0.46,0 -0.87,0.11 -1.23,0.32 -0.36,0.21 -0.65,0.51 -0.87,0.89 -0.21,0.39 -0.32,0.85 -0.32,1.4 0,0.54 0.11,1.01 0.32,1.4 0.22,0.39 0.51,0.69 0.87,0.9 0.36,0.21 0.77,0.31 1.23,0.31zm2.47 2.11l0 -1.93 0.05 -2.8 -0.18 -2.79 0 -5.49 2.74 0 0 13.01 -2.61 0z"/>
   <path id="_21" class="fil0" d="M686.95 537.5l-0.03 -9.43 2.71 0.02 0.02 9.41 -2.7 0zm1.33 -10.75c-0.5,0 -0.91,-0.14 -1.22,-0.44 -0.32,-0.29 -0.48,-0.65 -0.48,-1.08 0,-0.43 0.16,-0.8 0.48,-1.09 0.31,-0.29 0.72,-0.44 1.22,-0.44 0.51,0 0.91,0.14 1.23,0.42 0.32,0.27 0.47,0.62 0.47,1.06 0,0.45 -0.15,0.83 -0.46,1.13 -0.31,0.29 -0.72,0.44 -1.24,0.44z"/>
   <path class="fil1" d="M472.41 551.13c-0.47,0 -0.91,-0.08 -1.32,-0.24 -0.41,-0.17 -0.77,-0.39 -1.07,-0.69 -0.31,-0.29 -0.55,-0.63 -0.72,-1.02 -0.17,-0.39 -0.26,-0.81 -0.26,-1.27 0,-0.45 0.09,-0.87 0.26,-1.26 0.17,-0.38 0.41,-0.72 0.72,-1.02 0.3,-0.29 0.66,-0.52 1.06,-0.68 0.41,-0.17 0.85,-0.25 1.33,-0.25 0.45,0 0.83,0.05 1.15,0.16 0.33,0.11 0.65,0.28 0.98,0.53 0.04,0.03 0.08,0.07 0.1,0.1 0.03,0.04 0.05,0.07 0.06,0.1 0.01,0.04 0.01,0.08 0.01,0.13 0,0.1 -0.04,0.19 -0.12,0.26 -0.08,0.06 -0.17,0.1 -0.29,0.11 -0.11,0 -0.21,-0.03 -0.31,-0.11 -0.22,-0.17 -0.44,-0.3 -0.67,-0.39 -0.23,-0.09 -0.53,-0.14 -0.91,-0.14 -0.34,0 -0.67,0.07 -0.97,0.2 -0.3,0.13 -0.57,0.3 -0.8,0.53 -0.23,0.22 -0.41,0.48 -0.53,0.78 -0.13,0.3 -0.19,0.61 -0.19,0.95 0,0.34 0.06,0.66 0.19,0.96 0.12,0.3 0.3,0.56 0.53,0.78 0.23,0.23 0.5,0.4 0.8,0.53 0.3,0.13 0.63,0.19 0.97,0.19 0.3,0 0.58,-0.05 0.84,-0.14 0.26,-0.09 0.52,-0.22 0.76,-0.39 0.11,-0.07 0.21,-0.1 0.31,-0.09 0.1,0 0.19,0.04 0.26,0.11 0.07,0.07 0.1,0.16 0.1,0.28 0,0.05 -0.01,0.1 -0.03,0.15 -0.02,0.05 -0.05,0.1 -0.11,0.14 -0.3,0.24 -0.64,0.41 -1,0.53 -0.36,0.12 -0.74,0.17 -1.13,0.17zm2.27 -0.99l-0.87 -0.16 0 -1.44 -1.2 0c-0.13,0 -0.24,-0.04 -0.32,-0.11 -0.09,-0.07 -0.13,-0.15 -0.13,-0.26 0,-0.11 0.04,-0.2 0.13,-0.27 0.08,-0.07 0.19,-0.1 0.32,-0.1l1.63 0c0.13,0 0.24,0.04 0.32,0.12 0.08,0.07 0.12,0.17 0.12,0.3l0 1.92z"/>
   <path id="_1_0" class="fil1" d="M476.97 551.05c-0.13,0 -0.24,-0.04 -0.33,-0.12 -0.08,-0.08 -0.13,-0.18 -0.13,-0.3l0 -5.43c0,-0.13 0.05,-0.23 0.13,-0.31 0.09,-0.07 0.2,-0.11 0.33,-0.11l3.94 0c0.13,0 0.24,0.04 0.32,0.11 0.08,0.07 0.12,0.17 0.12,0.28 0,0.12 -0.04,0.21 -0.12,0.28 -0.08,0.07 -0.19,0.1 -0.32,0.1l-3.49 0 0 1.95 2.5 0c0.13,0 0.24,0.04 0.32,0.11 0.08,0.07 0.13,0.17 0.13,0.28 0,0.11 -0.05,0.2 -0.13,0.27 -0.08,0.08 -0.19,0.11 -0.32,0.11l-2.5 0 0 2.01 3.49 0c0.13,0 0.24,0.04 0.32,0.11 0.08,0.07 0.12,0.16 0.12,0.27 0,0.12 -0.04,0.21 -0.12,0.28 -0.08,0.08 -0.19,0.11 -0.32,0.11l-3.94 0z"/>
   <path id="_2_1" class="fil1" d="M483.44 551.05c-0.13,0 -0.23,-0.04 -0.32,-0.12 -0.08,-0.08 -0.12,-0.18 -0.12,-0.3l0 -5.43c0,-0.13 0.04,-0.23 0.12,-0.31 0.09,-0.07 0.19,-0.11 0.32,-0.11 0.14,0 0.26,0.05 0.35,0.15l3.8 4.66 0 -4.39c0,-0.13 0.04,-0.23 0.13,-0.31 0.09,-0.07 0.2,-0.11 0.32,-0.11 0.14,0 0.24,0.04 0.33,0.11 0.08,0.08 0.12,0.18 0.12,0.31l0 5.43c0,0.12 -0.04,0.22 -0.12,0.3 -0.09,0.08 -0.19,0.12 -0.33,0.12 -0.05,0 -0.12,-0.01 -0.18,-0.03 -0.07,-0.03 -0.12,-0.06 -0.17,-0.11l-3.79 -4.66 0 4.38c0,0.12 -0.05,0.22 -0.13,0.3 -0.09,0.08 -0.19,0.12 -0.33,0.12z"/>
   <path id="_3_2" class="fil1" d="M491.07 551.05c-0.13,0 -0.24,-0.04 -0.32,-0.12 -0.09,-0.08 -0.14,-0.18 -0.14,-0.3l0 -5.43c0,-0.13 0.05,-0.23 0.14,-0.31 0.08,-0.07 0.19,-0.11 0.32,-0.11l3.94 0c0.13,0 0.24,0.04 0.32,0.11 0.08,0.07 0.12,0.17 0.12,0.28 0,0.12 -0.04,0.21 -0.12,0.28 -0.08,0.07 -0.19,0.1 -0.32,0.1l-3.49 0 0 1.95 2.5 0c0.14,0 0.24,0.04 0.32,0.11 0.09,0.07 0.13,0.17 0.13,0.28 0,0.11 -0.04,0.2 -0.13,0.27 -0.08,0.08 -0.18,0.11 -0.32,0.11l-2.5 0 0 2.01 3.49 0c0.13,0 0.24,0.04 0.32,0.11 0.08,0.07 0.12,0.16 0.12,0.27 0,0.12 -0.04,0.21 -0.12,0.28 -0.08,0.08 -0.19,0.11 -0.32,0.11l-3.94 0z"/>
   <path id="_4_3" class="fil1" d="M497.55 551.05c-0.13,0 -0.23,-0.04 -0.32,-0.12 -0.09,-0.08 -0.13,-0.18 -0.13,-0.3l0 -5.43c0,-0.13 0.04,-0.23 0.13,-0.31 0.09,-0.07 0.19,-0.11 0.32,-0.11l1.57 0c0.44,0 0.82,0.08 1.16,0.25 0.34,0.17 0.6,0.4 0.79,0.7 0.19,0.29 0.28,0.63 0.28,1.02 0,0.37 -0.09,0.69 -0.28,0.98 -0.19,0.28 -0.45,0.5 -0.79,0.66 -0.34,0.16 -0.72,0.24 -1.16,0.24l-1.12 0 0 2c0,0.12 -0.04,0.22 -0.12,0.3 -0.09,0.08 -0.19,0.12 -0.33,0.12zm3.62 0c-0.08,0 -0.16,-0.01 -0.22,-0.05 -0.07,-0.03 -0.13,-0.08 -0.17,-0.15l-1.57 -2.33 0.88 -0.23 1.43 2.12c0.1,0.15 0.12,0.3 0.04,0.44 -0.07,0.13 -0.21,0.2 -0.39,0.2zm-3.17 -3.19l1.12 0c0.27,0 0.5,-0.04 0.71,-0.14 0.2,-0.09 0.36,-0.22 0.48,-0.39 0.11,-0.17 0.17,-0.36 0.17,-0.58 0,-0.23 -0.06,-0.44 -0.17,-0.62 -0.12,-0.18 -0.28,-0.32 -0.48,-0.43 -0.21,-0.1 -0.44,-0.15 -0.71,-0.15l-1.12 0 0 2.31z"/>
   <path id="_5_4" class="fil1" d="M502.72 551.05c-0.16,0 -0.29,-0.06 -0.38,-0.19 -0.08,-0.13 -0.09,-0.27 -0.02,-0.41l2.45 -5.39c0.08,-0.19 0.23,-0.28 0.42,-0.28 0.21,0 0.36,0.09 0.43,0.28l2.46 5.41c0.06,0.15 0.05,0.28 -0.03,0.4 -0.09,0.12 -0.21,0.18 -0.38,0.18 -0.09,0 -0.17,-0.02 -0.25,-0.07 -0.08,-0.04 -0.13,-0.1 -0.17,-0.18l-2.16 -4.95 0.24 0 -2.19 4.95c-0.04,0.08 -0.1,0.15 -0.18,0.19 -0.08,0.04 -0.16,0.06 -0.24,0.06zm0.46 -1.38l0.35 -0.69 3.42 0 0.35 0.69 -4.12 0z"/>
   <path id="_6_5" class="fil1" d="M509.94 551.05c-0.12,0 -0.23,-0.04 -0.31,-0.12 -0.09,-0.08 -0.13,-0.18 -0.13,-0.3l0 -5.43c0,-0.12 0.04,-0.22 0.13,-0.3 0.09,-0.08 0.19,-0.12 0.31,-0.12 0.13,0 0.24,0.04 0.33,0.12 0.08,0.08 0.13,0.18 0.13,0.3l0 5.02 3.15 0c0.13,0 0.24,0.04 0.32,0.12 0.09,0.08 0.14,0.18 0.14,0.29 0,0.12 -0.05,0.22 -0.14,0.3 -0.08,0.08 -0.19,0.12 -0.32,0.12l-3.61 0z"/>
   <path id="_7_6" class="fil1" d="M519.95 551.13c-0.37,0 -0.73,-0.05 -1.06,-0.16 -0.34,-0.11 -0.64,-0.26 -0.88,-0.45 -0.25,-0.19 -0.44,-0.41 -0.55,-0.66 -0.06,-0.12 -0.06,-0.22 0,-0.32 0.06,-0.09 0.16,-0.16 0.31,-0.18 0.1,-0.02 0.21,-0.01 0.31,0.04 0.1,0.05 0.18,0.13 0.23,0.23 0.07,0.13 0.19,0.26 0.35,0.37 0.15,0.11 0.35,0.2 0.57,0.27 0.23,0.07 0.47,0.11 0.72,0.11 0.28,0 0.53,-0.04 0.77,-0.12 0.24,-0.08 0.43,-0.2 0.57,-0.35 0.15,-0.16 0.22,-0.34 0.22,-0.57 0,-0.28 -0.12,-0.54 -0.36,-0.76 -0.24,-0.23 -0.64,-0.37 -1.19,-0.42 -0.72,-0.06 -1.29,-0.26 -1.7,-0.59 -0.41,-0.32 -0.62,-0.73 -0.62,-1.21 0,-0.35 0.11,-0.65 0.32,-0.9 0.22,-0.24 0.51,-0.43 0.88,-0.56 0.37,-0.13 0.78,-0.19 1.23,-0.19 0.35,0 0.67,0.04 0.93,0.13 0.26,0.09 0.49,0.22 0.69,0.38 0.2,0.16 0.37,0.35 0.52,0.57 0.08,0.12 0.11,0.23 0.1,0.33 -0.02,0.11 -0.07,0.19 -0.17,0.25 -0.11,0.06 -0.23,0.08 -0.36,0.04 -0.13,-0.04 -0.23,-0.11 -0.29,-0.21 -0.09,-0.16 -0.2,-0.29 -0.34,-0.39 -0.13,-0.11 -0.29,-0.19 -0.47,-0.26 -0.18,-0.06 -0.39,-0.09 -0.63,-0.09 -0.43,0 -0.8,0.07 -1.09,0.22 -0.29,0.15 -0.43,0.39 -0.43,0.71 0,0.16 0.04,0.31 0.13,0.46 0.09,0.14 0.26,0.27 0.5,0.38 0.24,0.11 0.59,0.18 1.04,0.22 0.69,0.07 1.23,0.26 1.62,0.59 0.38,0.32 0.58,0.75 0.58,1.28 0,0.3 -0.07,0.57 -0.21,0.79 -0.13,0.23 -0.32,0.42 -0.55,0.57 -0.23,0.15 -0.49,0.27 -0.78,0.34 -0.29,0.08 -0.6,0.11 -0.91,0.11z"/>
   <path id="_8_7" class="fil1" d="M527.02 551.18c-0.56,0 -1.06,-0.09 -1.48,-0.28 -0.43,-0.19 -0.77,-0.46 -1.01,-0.79 -0.24,-0.34 -0.36,-0.72 -0.36,-1.16l0 -3.75c0,-0.13 0.04,-0.23 0.13,-0.31 0.08,-0.07 0.19,-0.11 0.32,-0.11 0.13,0 0.24,0.04 0.32,0.11 0.09,0.08 0.13,0.18 0.13,0.31l0 3.75c0,0.29 0.09,0.55 0.25,0.77 0.17,0.22 0.4,0.39 0.69,0.52 0.29,0.12 0.63,0.19 1.01,0.19 0.36,0 0.68,-0.07 0.96,-0.19 0.28,-0.12 0.5,-0.3 0.67,-0.52 0.16,-0.22 0.24,-0.48 0.24,-0.77l0 -3.75c0,-0.13 0.04,-0.23 0.13,-0.31 0.09,-0.07 0.19,-0.11 0.32,-0.11 0.14,0 0.25,0.04 0.33,0.11 0.08,0.08 0.12,0.18 0.12,0.31l0 3.75c0,0.44 -0.12,0.82 -0.35,1.16 -0.24,0.33 -0.57,0.6 -0.99,0.79 -0.41,0.19 -0.89,0.28 -1.43,0.28z"/>
   <path id="_9_8" class="fil1" d="M532.37 551.05c-0.13,0 -0.24,-0.04 -0.32,-0.12 -0.09,-0.08 -0.14,-0.18 -0.14,-0.3l0 -5.43c0,-0.13 0.05,-0.23 0.14,-0.31 0.08,-0.07 0.19,-0.11 0.32,-0.11l1.74 0c0.44,0 0.82,0.09 1.16,0.26 0.33,0.18 0.59,0.42 0.78,0.74 0.2,0.31 0.29,0.67 0.29,1.08 0,0.39 -0.09,0.74 -0.28,1.04 -0.19,0.31 -0.45,0.55 -0.79,0.72 -0.34,0.17 -0.72,0.26 -1.16,0.26l-1.29 0 0 1.75c0,0.12 -0.04,0.22 -0.13,0.3 -0.09,0.08 -0.19,0.12 -0.32,0.12zm0.45 -2.95l1.29 0c0.27,0 0.5,-0.05 0.71,-0.16 0.2,-0.1 0.36,-0.25 0.48,-0.44 0.11,-0.19 0.17,-0.4 0.17,-0.64 0,-0.26 -0.06,-0.49 -0.17,-0.69 -0.11,-0.19 -0.27,-0.35 -0.48,-0.46 -0.21,-0.11 -0.44,-0.16 -0.71,-0.16l-1.29 0 0 2.55z"/>
   <path id="_10_9" class="fil1" d="M538.18 551.05c-0.13,0 -0.23,-0.04 -0.32,-0.12 -0.09,-0.08 -0.13,-0.18 -0.13,-0.3l0 -5.43c0,-0.13 0.04,-0.23 0.13,-0.31 0.09,-0.07 0.19,-0.11 0.32,-0.11l1.74 0c0.44,0 0.83,0.09 1.16,0.26 0.33,0.18 0.6,0.42 0.79,0.74 0.19,0.31 0.29,0.67 0.29,1.08 0,0.39 -0.1,0.74 -0.29,1.04 -0.19,0.31 -0.45,0.55 -0.79,0.72 -0.33,0.17 -0.72,0.26 -1.16,0.26l-1.29 0 0 1.75c0,0.12 -0.04,0.22 -0.13,0.3 -0.08,0.08 -0.19,0.12 -0.32,0.12zm0.45 -2.95l1.29 0c0.27,0 0.51,-0.05 0.71,-0.16 0.2,-0.1 0.36,-0.25 0.48,-0.44 0.12,-0.19 0.17,-0.4 0.17,-0.64 0,-0.26 -0.05,-0.49 -0.17,-0.69 -0.11,-0.19 -0.27,-0.35 -0.48,-0.46 -0.2,-0.11 -0.44,-0.16 -0.71,-0.16l-1.29 0 0 2.55z"/>
   <path id="_11_10" class="fil1" d="M543.99 551.05c-0.13,0 -0.24,-0.04 -0.32,-0.12 -0.09,-0.08 -0.13,-0.18 -0.13,-0.3l0 -5.43c0,-0.12 0.04,-0.22 0.13,-0.3 0.09,-0.08 0.19,-0.12 0.32,-0.12 0.12,0 0.23,0.04 0.32,0.12 0.09,0.08 0.13,0.18 0.13,0.3l0 5.02 3.15 0c0.13,0 0.24,0.04 0.33,0.12 0.08,0.08 0.13,0.18 0.13,0.29 0,0.12 -0.05,0.22 -0.13,0.3 -0.09,0.08 -0.2,0.12 -0.33,0.12l-3.6 0z"/>
   <path id="_12_11" class="fil1" d="M549.97 551.05c-0.13,0 -0.23,-0.04 -0.32,-0.12 -0.09,-0.08 -0.13,-0.18 -0.13,-0.3l0 -5.43c0,-0.13 0.04,-0.23 0.13,-0.31 0.09,-0.07 0.19,-0.11 0.32,-0.11 0.14,0 0.25,0.04 0.33,0.11 0.08,0.08 0.13,0.18 0.13,0.31l0 5.43c0,0.12 -0.05,0.22 -0.13,0.3 -0.08,0.08 -0.19,0.12 -0.33,0.12z"/>
   <path id="_13_12" class="fil1" d="M553.01 551.05c-0.13,0 -0.24,-0.04 -0.33,-0.12 -0.08,-0.08 -0.13,-0.18 -0.13,-0.3l0 -5.43c0,-0.13 0.05,-0.23 0.13,-0.31 0.09,-0.07 0.2,-0.11 0.33,-0.11l3.94 0c0.13,0 0.24,0.04 0.32,0.11 0.08,0.07 0.12,0.17 0.12,0.28 0,0.12 -0.04,0.21 -0.12,0.28 -0.08,0.07 -0.19,0.1 -0.32,0.1l-3.49 0 0 1.95 2.5 0c0.13,0 0.24,0.04 0.32,0.11 0.08,0.07 0.13,0.17 0.13,0.28 0,0.11 -0.05,0.2 -0.13,0.27 -0.08,0.08 -0.19,0.11 -0.32,0.11l-2.5 0 0 2.01 3.49 0c0.13,0 0.24,0.04 0.32,0.11 0.08,0.07 0.12,0.16 0.12,0.27 0,0.12 -0.04,0.21 -0.12,0.28 -0.08,0.08 -0.19,0.11 -0.32,0.11l-3.94 0z"/>
   <path id="_14_13" class="fil1" d="M559.49 551.05c-0.13,0 -0.24,-0.04 -0.32,-0.12 -0.09,-0.08 -0.13,-0.18 -0.13,-0.3l0 -5.43c0,-0.13 0.04,-0.23 0.13,-0.31 0.08,-0.07 0.19,-0.11 0.32,-0.11l1.57 0c0.43,0 0.82,0.08 1.16,0.25 0.33,0.17 0.6,0.4 0.79,0.7 0.19,0.29 0.28,0.63 0.28,1.02 0,0.37 -0.09,0.69 -0.28,0.98 -0.19,0.28 -0.46,0.5 -0.79,0.66 -0.34,0.16 -0.73,0.24 -1.16,0.24l-1.12 0 0 2c0,0.12 -0.04,0.22 -0.12,0.3 -0.09,0.08 -0.2,0.12 -0.33,0.12zm3.62 0c-0.08,0 -0.16,-0.01 -0.22,-0.05 -0.07,-0.03 -0.13,-0.08 -0.18,-0.15l-1.56 -2.33 0.88 -0.23 1.43 2.12c0.1,0.15 0.11,0.3 0.04,0.44 -0.08,0.13 -0.21,0.2 -0.39,0.2zm-3.17 -3.19l1.12 0c0.26,0 0.5,-0.04 0.7,-0.14 0.21,-0.09 0.37,-0.22 0.48,-0.39 0.12,-0.17 0.18,-0.36 0.18,-0.58 0,-0.23 -0.06,-0.44 -0.18,-0.62 -0.11,-0.18 -0.27,-0.32 -0.48,-0.43 -0.2,-0.1 -0.44,-0.15 -0.7,-0.15l-1.12 0 0 2.31z"/>
   <path id="_15_14" class="fil1" d="M570.29 551.13c-0.47,0 -0.91,-0.08 -1.32,-0.24 -0.41,-0.17 -0.77,-0.39 -1.07,-0.69 -0.31,-0.29 -0.55,-0.63 -0.72,-1.02 -0.17,-0.39 -0.26,-0.81 -0.26,-1.27 0,-0.45 0.09,-0.87 0.26,-1.26 0.17,-0.38 0.41,-0.72 0.72,-1.02 0.3,-0.29 0.66,-0.52 1.06,-0.68 0.41,-0.17 0.85,-0.25 1.33,-0.25 0.45,0 0.83,0.05 1.15,0.16 0.32,0.11 0.65,0.28 0.97,0.53 0.05,0.03 0.09,0.07 0.11,0.1 0.03,0.04 0.05,0.07 0.06,0.1 0,0.04 0.01,0.08 0.01,0.13 0,0.1 -0.04,0.18 -0.12,0.25 -0.08,0.07 -0.17,0.11 -0.28,0.11 -0.11,0.01 -0.22,-0.02 -0.33,-0.1 -0.21,-0.17 -0.43,-0.3 -0.66,-0.39 -0.23,-0.09 -0.53,-0.14 -0.91,-0.14 -0.34,0 -0.67,0.07 -0.97,0.2 -0.3,0.13 -0.57,0.3 -0.8,0.53 -0.23,0.22 -0.41,0.48 -0.53,0.78 -0.13,0.3 -0.2,0.61 -0.2,0.95 0,0.34 0.07,0.66 0.2,0.96 0.12,0.3 0.3,0.56 0.53,0.78 0.23,0.23 0.5,0.4 0.8,0.53 0.3,0.13 0.63,0.19 0.97,0.19 0.29,0 0.57,-0.05 0.84,-0.14 0.26,-0.09 0.52,-0.22 0.76,-0.39 0.11,-0.07 0.21,-0.1 0.31,-0.09 0.1,0 0.19,0.04 0.26,0.11 0.07,0.07 0.1,0.16 0.1,0.28 0,0.05 -0.01,0.1 -0.03,0.15 -0.02,0.05 -0.06,0.1 -0.11,0.14 -0.31,0.23 -0.65,0.41 -1,0.53 -0.36,0.11 -0.74,0.17 -1.13,0.17z"/>
   <path id="_16_15" class="fil1" d="M577.54 551.13c-0.51,0 -0.98,-0.08 -1.4,-0.23 -0.43,-0.16 -0.79,-0.38 -1.1,-0.67 -0.3,-0.29 -0.54,-0.63 -0.71,-1.02 -0.17,-0.4 -0.25,-0.83 -0.25,-1.3 0,-0.47 0.08,-0.9 0.25,-1.29 0.17,-0.39 0.41,-0.73 0.71,-1.02 0.31,-0.29 0.67,-0.51 1.1,-0.66 0.42,-0.16 0.89,-0.24 1.4,-0.24 0.51,0 0.98,0.08 1.4,0.24 0.42,0.15 0.78,0.37 1.09,0.66 0.31,0.29 0.55,0.63 0.72,1.02 0.16,0.39 0.25,0.82 0.25,1.29 0,0.47 -0.09,0.9 -0.25,1.3 -0.17,0.39 -0.41,0.73 -0.72,1.02 -0.31,0.29 -0.67,0.51 -1.09,0.67 -0.42,0.15 -0.89,0.23 -1.4,0.23zm0 -0.75c0.38,0 0.72,-0.07 1.04,-0.19 0.32,-0.13 0.59,-0.3 0.82,-0.52 0.24,-0.22 0.41,-0.49 0.54,-0.79 0.12,-0.3 0.19,-0.62 0.19,-0.97 0,-0.35 -0.07,-0.67 -0.19,-0.97 -0.13,-0.3 -0.3,-0.56 -0.54,-0.78 -0.23,-0.23 -0.5,-0.4 -0.82,-0.52 -0.32,-0.12 -0.66,-0.19 -1.04,-0.19 -0.38,0 -0.73,0.07 -1.04,0.19 -0.32,0.12 -0.59,0.29 -0.82,0.52 -0.23,0.22 -0.41,0.48 -0.54,0.78 -0.13,0.3 -0.19,0.62 -0.19,0.97 0,0.35 0.06,0.67 0.19,0.97 0.13,0.3 0.31,0.57 0.54,0.79 0.23,0.22 0.5,0.39 0.82,0.52 0.31,0.12 0.66,0.19 1.04,0.19z"/>
   <path id="_17_16" class="fil1" d="M583.26 551.05c-0.13,0 -0.24,-0.04 -0.33,-0.12 -0.08,-0.08 -0.13,-0.18 -0.13,-0.3l0 -5.43c0,-0.13 0.05,-0.23 0.13,-0.31 0.09,-0.07 0.2,-0.11 0.33,-0.11 0.17,0 0.3,0.07 0.4,0.22l2.72 5.04 -0.27 0 2.65 -5.04c0.1,-0.15 0.23,-0.22 0.41,-0.22 0.12,0 0.23,0.04 0.32,0.11 0.08,0.08 0.13,0.18 0.13,0.31l0 5.43c0,0.12 -0.05,0.22 -0.14,0.3 -0.09,0.08 -0.19,0.12 -0.31,0.12 -0.13,0 -0.24,-0.04 -0.33,-0.12 -0.09,-0.08 -0.13,-0.18 -0.13,-0.3l0 -4.28 0.18 -0.04 -2.29 4.29c-0.1,0.14 -0.23,0.21 -0.39,0.21 -0.19,0 -0.33,-0.08 -0.42,-0.25l-2.26 -4.17 0.18 -0.04 0 4.28c0,0.12 -0.04,0.22 -0.13,0.3 -0.09,0.08 -0.2,0.12 -0.32,0.12z"/>
   <path id="_18_17" class="fil1" d="M592.2 551.05c-0.13,0 -0.24,-0.04 -0.32,-0.12 -0.09,-0.08 -0.14,-0.18 -0.14,-0.3l0 -5.43c0,-0.13 0.05,-0.23 0.14,-0.31 0.08,-0.07 0.19,-0.11 0.32,-0.11l1.74 0c0.44,0 0.82,0.09 1.16,0.26 0.33,0.18 0.59,0.42 0.78,0.74 0.2,0.31 0.29,0.67 0.29,1.08 0,0.39 -0.09,0.74 -0.28,1.04 -0.19,0.31 -0.45,0.55 -0.79,0.72 -0.34,0.17 -0.72,0.26 -1.16,0.26l-1.29 0 0 1.75c0,0.12 -0.04,0.22 -0.13,0.3 -0.09,0.08 -0.19,0.12 -0.32,0.12zm0.45 -2.95l1.29 0c0.27,0 0.5,-0.05 0.71,-0.16 0.2,-0.1 0.36,-0.25 0.48,-0.44 0.11,-0.19 0.17,-0.4 0.17,-0.64 0,-0.26 -0.06,-0.49 -0.17,-0.69 -0.11,-0.19 -0.27,-0.35 -0.48,-0.46 -0.21,-0.11 -0.44,-0.16 -0.71,-0.16l-1.29 0 0 2.55z"/>
   <path id="_19_18" class="fil1" d="M597.03 551.05c-0.17,0 -0.29,-0.06 -0.38,-0.19 -0.09,-0.13 -0.09,-0.27 -0.03,-0.41l2.45 -5.39c0.09,-0.19 0.23,-0.28 0.43,-0.28 0.21,0 0.35,0.09 0.43,0.28l2.46 5.41c0.06,0.15 0.05,0.28 -0.03,0.4 -0.09,0.12 -0.22,0.18 -0.38,0.18 -0.09,0 -0.17,-0.02 -0.25,-0.07 -0.08,-0.04 -0.14,-0.1 -0.17,-0.18l-2.16 -4.95 0.24 0 -2.2 4.95c-0.04,0.08 -0.1,0.15 -0.17,0.19 -0.08,0.04 -0.16,0.06 -0.24,0.06zm0.46 -1.38l0.35 -0.69 3.41 0 0.35 0.69 -4.11 0z"/>
   <path id="_20_19" class="fil1" d="M604.25 551.05c-0.13,0 -0.23,-0.04 -0.32,-0.12 -0.08,-0.08 -0.12,-0.18 -0.12,-0.3l0 -5.43c0,-0.13 0.04,-0.23 0.12,-0.31 0.09,-0.07 0.19,-0.11 0.32,-0.11 0.14,0 0.26,0.05 0.35,0.15l3.8 4.66 0 -4.39c0,-0.13 0.04,-0.23 0.13,-0.31 0.09,-0.07 0.19,-0.11 0.32,-0.11 0.14,0 0.24,0.04 0.32,0.11 0.09,0.08 0.13,0.18 0.13,0.31l0 5.43c0,0.12 -0.04,0.22 -0.13,0.3 -0.08,0.08 -0.18,0.12 -0.32,0.12 -0.06,0 -0.12,-0.01 -0.19,-0.03 -0.06,-0.03 -0.12,-0.06 -0.16,-0.11l-3.8 -4.66 0 4.38c0,0.12 -0.04,0.22 -0.12,0.3 -0.09,0.08 -0.2,0.12 -0.33,0.12z"/>
   <path id="_21_20" class="fil1" d="M613.46 551.05c-0.12,0 -0.22,-0.04 -0.31,-0.12 -0.09,-0.08 -0.13,-0.18 -0.13,-0.3l0 -1.87 -2.33 -3.33c-0.07,-0.11 -0.1,-0.22 -0.09,-0.32 0.02,-0.1 0.07,-0.18 0.16,-0.24 0.08,-0.06 0.18,-0.09 0.29,-0.09 0.1,0 0.18,0.02 0.23,0.06 0.06,0.04 0.12,0.1 0.17,0.17l2.21 3.24 -0.35 0 2.25 -3.27c0.05,-0.06 0.1,-0.11 0.17,-0.15 0.06,-0.03 0.14,-0.05 0.23,-0.05 0.11,0 0.2,0.03 0.27,0.1 0.06,0.07 0.11,0.15 0.12,0.25 0.01,0.1 -0.02,0.2 -0.09,0.3l-2.34 3.33 0 1.87c0,0.12 -0.05,0.22 -0.14,0.3 -0.08,0.08 -0.19,0.12 -0.32,0.12z"/>
   <path class="fil2" d="M429.08 562.39c3.76,-1.84 7.2,-4.08 10.24,-6.6l2.43 2.43 0 -8.98 -8.98 0 2.43 2.43c-0.22,0.25 -0.51,0.45 -0.86,0.62 -0.36,0.24 -0.74,0.45 -1.12,0.65l-10.48 0 9.24 -25.88 9.24 0 6.87 19.24c4.89,-7.14 6.88,-14.95 4.76,-21.5 -4,-12.37 -21.12,-15.59 -38.24,-7.19 -2.34,1.14 -4.56,2.45 -6.63,3.87l-3.41 -3.4 0 5.96 0 3.02 7.34 0 1.64 0 3.12 0 3.84 0 3.55 0 0 12.94c0,8.62 -3.7,12.94 -11.09,12.94l-2.71 0 0 -7.4 2.71 0c2.47,0 3.7,-1.84 3.7,-5.54l0 -5.55 -3.12 0 -1.64 0 -4.82 0 0 18.49 -7.4 0 0 -18.49 -4.59 0c-4.52,6.94 -6.3,14.43 -4.26,20.75 4,12.37 21.12,15.59 38.24,7.19zm-11.87 -44.39l6.38 0 0 6.39 -6.38 0 0 -6.39zm19.39 16.83l-2.52 7.02 5.03 0 -2.51 -7.02z"/>
   <rect class="fil3" x="417.2" y="518" width="6.39" height="6.39"/>
  </g>
 </g>
</svg>
