<?xml version="1.0" encoding="UTF-8"?>
<!DOCTYPE svg PUBLIC "-//W3C//DTD SVG 1.1//EN" "http://www.w3.org/Graphics/SVG/1.1/DTD/svg11.dtd">
<!-- Creator: CorelDRAW 2021.5 -->
<svg xmlns="http://www.w3.org/2000/svg" xml:space="preserve" width="370px" height="100px" version="1.1" style="shape-rendering:geometricPrecision; text-rendering:geometricPrecision; image-rendering:optimizeQuality; fill-rule:evenodd; clip-rule:evenodd"
viewBox="0 0 370 100"
 xmlns:xlink="http://www.w3.org/1999/xlink"
 xmlns:xodm="http://www.corel.com/coreldraw/odm/2003">
 <defs>
  <style type="text/css">
   <![CDATA[
    .fil2 {fill:white}
    .fil1 {fill:#F5F8FD;fill-rule:nonzero}
    .fil0 {fill:white;fill-rule:nonzero}
   ]]>
  </style>
 </defs>
 <g id="Layer_x0020_1">
  <metadata id="CorelCorpID_0Corel-Layer"/>
  <g id="_2116916275872">
   <path class="fil0" d="M89.91 30.42l0 -14.49 6.27 0c1.29,0 2.41,0.21 3.35,0.63 0.94,0.42 1.66,1.02 2.17,1.81 0.51,0.79 0.77,1.72 0.77,2.81 0,1.08 -0.26,2.01 -0.77,2.8 -0.51,0.79 -1.23,1.39 -2.17,1.81 -0.94,0.42 -2.06,0.63 -3.35,0.63l-4.41 0 1.49 -1.51 0 5.51 -3.35 0zm3.35 -5.14l-1.49 -1.59 4.22 0c1.04,0 1.81,-0.22 2.32,-0.66 0.51,-0.44 0.77,-1.06 0.77,-1.85 0,-0.8 -0.26,-1.42 -0.77,-1.86 -0.51,-0.44 -1.28,-0.66 -2.32,-0.66l-4.22 0 1.49 -1.59 0 8.21z"/>
   <polygon id="_1" class="fil0" points="107.32,30.42 107.29,18.66 102.66,18.66 102.66,15.93 115.26,15.93 115.29,18.66 110.63,18.66 110.65,30.42 "/>
   <path id="_2" class="fil0" d="M117.23 30.58c-0.55,0 -1.02,-0.19 -1.41,-0.57 -0.4,-0.38 -0.59,-0.86 -0.59,-1.46 0,-0.59 0.19,-1.07 0.59,-1.44 0.39,-0.36 0.86,-0.54 1.41,-0.54 0.57,0 1.05,0.18 1.43,0.54 0.39,0.37 0.58,0.85 0.58,1.44 0,0.6 -0.19,1.08 -0.58,1.46 -0.38,0.38 -0.86,0.57 -1.43,0.57z"/>
   <polygon id="_3" class="fil0" points="127.55,30.42 127.53,18.66 122.89,18.66 122.89,15.93 135.5,15.93 135.52,18.66 130.86,18.66 130.88,30.42 "/>
   <path id="_4" class="fil0" d="M143.2 30.42l0 -2.18 -0.21 -0.47 0 -3.9c0,-0.68 -0.21,-1.22 -0.63,-1.61 -0.42,-0.39 -1.07,-0.58 -1.94,-0.58 -0.59,0 -1.17,0.09 -1.74,0.28 -0.58,0.19 -1.06,0.44 -1.46,0.76l-1.16 -2.26c0.6,-0.43 1.34,-0.76 2.19,-0.99 0.86,-0.24 1.73,-0.35 2.61,-0.35 1.7,0 3.01,0.4 3.95,1.2 0.94,0.8 1.41,2.04 1.41,3.74l0 6.36 -3.02 0zm-3.4 0.16c-0.87,0 -1.61,-0.15 -2.23,-0.44 -0.62,-0.3 -1.1,-0.7 -1.43,-1.21 -0.33,-0.51 -0.5,-1.09 -0.5,-1.72 0,-0.66 0.17,-1.24 0.49,-1.74 0.32,-0.5 0.84,-0.89 1.54,-1.17 0.71,-0.28 1.62,-0.43 2.75,-0.43l2.96 0 0 1.89 -2.6 0c-0.76,0 -1.28,0.12 -1.57,0.37 -0.28,0.25 -0.42,0.56 -0.42,0.93 0,0.42 0.16,0.74 0.49,0.99 0.32,0.24 0.76,0.36 1.33,0.36 0.54,0 1.02,-0.13 1.45,-0.38 0.43,-0.26 0.74,-0.64 0.93,-1.13l0.5 1.49c-0.24,0.71 -0.66,1.26 -1.29,1.63 -0.62,0.37 -1.42,0.56 -2.4,0.56z"/>
   <path id="_5" class="fil0" d="M154.44 30.58c-1.2,0 -2.27,-0.24 -3.21,-0.73 -0.94,-0.49 -1.67,-1.17 -2.2,-2.04 -0.53,-0.87 -0.8,-1.86 -0.8,-2.96 0,-1.12 0.27,-2.11 0.8,-2.97 0.53,-0.86 1.26,-1.54 2.2,-2.03 0.94,-0.49 2.01,-0.73 3.21,-0.73 1.17,0 2.19,0.24 3.06,0.73 0.87,0.49 1.51,1.19 1.93,2.1l-2.51 1.35c-0.29,-0.53 -0.65,-0.91 -1.08,-1.16 -0.44,-0.25 -0.91,-0.38 -1.42,-0.38 -0.55,0 -1.05,0.13 -1.49,0.38 -0.44,0.25 -0.79,0.6 -1.05,1.05 -0.25,0.46 -0.38,1.01 -0.38,1.66 0,0.65 0.13,1.2 0.38,1.65 0.26,0.46 0.61,0.81 1.05,1.06 0.44,0.25 0.94,0.37 1.49,0.37 0.51,0 0.98,-0.12 1.42,-0.36 0.43,-0.24 0.79,-0.63 1.08,-1.17l2.51 1.37c-0.42,0.89 -1.06,1.59 -1.93,2.08 -0.87,0.49 -1.89,0.73 -3.06,0.73z"/>
   <path id="_6" class="fil0" d="M167.81 19.12c0.89,0 1.68,0.17 2.37,0.52 0.7,0.35 1.25,0.89 1.65,1.62 0.4,0.72 0.6,1.65 0.6,2.78l0 6.38 -3.23 0 0 -5.88c0,-0.9 -0.2,-1.56 -0.59,-1.99 -0.39,-0.43 -0.95,-0.64 -1.67,-0.64 -0.51,0 -0.97,0.11 -1.37,0.32 -0.41,0.21 -0.73,0.54 -0.95,0.98 -0.23,0.44 -0.35,1.01 -0.35,1.7l0 5.51 -3.23 0 0 -15.36 3.23 0 0 7.3 -0.72 -0.93c0.4,-0.74 0.97,-1.31 1.72,-1.71 0.74,-0.41 1.59,-0.6 2.54,-0.6z"/>
   <path id="_7" class="fil0" d="M175.23 30.42l-0.05 -11.14 3.21 0.02 0.02 11.12 -3.18 0zm1.57 -12.69c-0.6,0 -1.08,-0.17 -1.45,-0.52 -0.37,-0.34 -0.56,-0.77 -0.56,-1.28 0,-0.51 0.19,-0.94 0.56,-1.29 0.37,-0.34 0.85,-0.51 1.45,-0.51 0.59,0 1.07,0.16 1.45,0.48 0.37,0.33 0.56,0.74 0.56,1.26 0,0.53 -0.19,0.98 -0.55,1.33 -0.37,0.35 -0.85,0.53 -1.46,0.53z"/>
   <path id="_8" class="fil0" d="M188.02 19.12c0.88,0 1.67,0.17 2.37,0.52 0.7,0.35 1.24,0.89 1.64,1.62 0.41,0.72 0.6,1.65 0.6,2.78l0 6.38 -3.22 0 0 -5.88c0,-0.9 -0.2,-1.56 -0.59,-1.99 -0.4,-0.43 -0.95,-0.64 -1.67,-0.64 -0.51,0 -0.97,0.11 -1.38,0.32 -0.4,0.21 -0.72,0.54 -0.95,0.98 -0.23,0.44 -0.34,1.01 -0.34,1.7l0 5.51 -3.23 0 0 -11.14 3.09 0 0 3.08 -0.58 -0.93c0.4,-0.74 0.97,-1.31 1.71,-1.71 0.75,-0.41 1.6,-0.6 2.55,-0.6z"/>
   <path id="_9" class="fil0" d="M202.22 30.42l0 -2.18 -0.21 -0.47 0 -3.9c0,-0.68 -0.21,-1.22 -0.63,-1.61 -0.42,-0.39 -1.06,-0.58 -1.93,-0.58 -0.6,0 -1.18,0.09 -1.75,0.28 -0.57,0.19 -1.06,0.44 -1.46,0.76l-1.16 -2.26c0.61,-0.43 1.34,-0.76 2.19,-0.99 0.86,-0.24 1.73,-0.35 2.61,-0.35 1.7,0 3.02,0.4 3.96,1.2 0.93,0.8 1.4,2.04 1.4,3.74l0 6.36 -3.02 0zm-3.39 0.16c-0.87,0 -1.62,-0.15 -2.24,-0.44 -0.62,-0.3 -1.1,-0.7 -1.43,-1.21 -0.33,-0.51 -0.5,-1.09 -0.5,-1.72 0,-0.66 0.17,-1.24 0.49,-1.74 0.33,-0.5 0.84,-0.89 1.55,-1.17 0.7,-0.28 1.62,-0.43 2.75,-0.43l2.96 0 0 1.89 -2.61 0c-0.76,0 -1.28,0.12 -1.56,0.37 -0.29,0.25 -0.43,0.56 -0.43,0.93 0,0.42 0.16,0.74 0.49,0.99 0.32,0.24 0.77,0.36 1.33,0.36 0.54,0 1.03,-0.13 1.45,-0.38 0.43,-0.26 0.74,-0.64 0.93,-1.13l0.5 1.49c-0.23,0.71 -0.66,1.26 -1.28,1.63 -0.62,0.37 -1.42,0.56 -2.4,0.56z"/>
   <path id="_10" class="fil0" d="M208 30.42l0 -11.14 3.08 0 0 3.15 -0.43 -0.91c0.33,-0.79 0.86,-1.39 1.59,-1.79 0.73,-0.41 1.62,-0.61 2.67,-0.61l0 2.97c-0.14,-0.01 -0.26,-0.02 -0.37,-0.03 -0.11,0 -0.23,-0.01 -0.35,-0.01 -0.89,0 -1.6,0.26 -2.15,0.76 -0.54,0.5 -0.81,1.29 -0.81,2.35l0 5.26 -3.23 0z"/>
   <path id="_11" class="fil0" d="M221.35 30.58c-1.05,0 -1.99,-0.24 -2.83,-0.71 -0.85,-0.48 -1.51,-1.14 -2,-2 -0.49,-0.86 -0.74,-1.86 -0.74,-3.02 0,-1.17 0.25,-2.19 0.74,-3.04 0.49,-0.86 1.15,-1.52 2,-1.99 0.84,-0.47 1.78,-0.7 2.83,-0.7 0.94,0 1.76,0.2 2.46,0.62 0.71,0.41 1.25,1.04 1.64,1.88 0.39,0.84 0.58,1.92 0.58,3.23 0,1.29 -0.19,2.37 -0.56,3.22 -0.37,0.85 -0.91,1.48 -1.6,1.89 -0.7,0.41 -1.54,0.62 -2.52,0.62zm0.56 -2.65c0.52,0 1,-0.12 1.43,-0.37 0.43,-0.25 0.77,-0.6 1.02,-1.07 0.26,-0.46 0.39,-1.01 0.39,-1.64 0,-0.65 -0.13,-1.2 -0.39,-1.66 -0.25,-0.45 -0.59,-0.8 -1.02,-1.05 -0.43,-0.25 -0.91,-0.38 -1.43,-0.38 -0.54,0 -1.02,0.13 -1.45,0.38 -0.43,0.25 -0.77,0.6 -1.02,1.05 -0.26,0.46 -0.39,1.01 -0.39,1.66 0,0.63 0.13,1.18 0.39,1.64 0.25,0.47 0.59,0.82 1.02,1.07 0.43,0.25 0.91,0.37 1.45,0.37zm2.92 2.49l0 -2.28 0.06 -3.31 -0.21 -3.29 0 -6.48 3.23 0 0 15.36 -3.08 0z"/>
   <path id="_12" class="fil0" d="M230.77 30.42l-0.04 -11.14 3.21 0.02 0.02 11.12 -3.19 0zm1.57 -12.69c-0.59,0 -1.07,-0.17 -1.44,-0.52 -0.38,-0.34 -0.56,-0.77 -0.56,-1.28 0,-0.51 0.18,-0.94 0.56,-1.29 0.37,-0.34 0.85,-0.51 1.44,-0.51 0.6,0 1.08,0.16 1.45,0.48 0.38,0.33 0.56,0.74 0.56,1.26 0,0.53 -0.18,0.98 -0.55,1.33 -0.36,0.35 -0.85,0.53 -1.46,0.53z"/>
   <path id="_13" class="fil0" d="M242.72 30.66c-0.98,0 -1.88,-0.18 -2.7,-0.54 -0.82,-0.37 -1.49,-0.89 -2.02,-1.57l1.86 -2.23c0.41,0.52 0.83,0.92 1.27,1.19 0.44,0.27 0.92,0.4 1.43,0.4 1.36,0 2.04,-0.8 2.04,-2.4l0 -6.89 -5.09 0 0 -2.69 8.43 0 0 9.39c0,1.8 -0.45,3.14 -1.33,4.02 -0.88,0.88 -2.18,1.32 -3.89,1.32z"/>
   <path id="_14" class="fil0" d="M257.69 30.42l0 -2.18 -0.21 -0.47 0 -3.9c0,-0.68 -0.21,-1.22 -0.63,-1.61 -0.42,-0.39 -1.07,-0.58 -1.94,-0.58 -0.59,0 -1.17,0.09 -1.74,0.28 -0.58,0.19 -1.06,0.44 -1.46,0.76l-1.16 -2.26c0.6,-0.43 1.33,-0.76 2.19,-0.99 0.86,-0.24 1.73,-0.35 2.61,-0.35 1.7,0 3.01,0.4 3.95,1.2 0.94,0.8 1.41,2.04 1.41,3.74l0 6.36 -3.02 0zm-3.4 0.16c-0.87,0 -1.61,-0.15 -2.23,-0.44 -0.62,-0.3 -1.1,-0.7 -1.43,-1.21 -0.33,-0.51 -0.5,-1.09 -0.5,-1.72 0,-0.66 0.17,-1.24 0.49,-1.74 0.32,-0.5 0.84,-0.89 1.54,-1.17 0.71,-0.28 1.62,-0.43 2.75,-0.43l2.96 0 0 1.89 -2.6 0c-0.76,0 -1.28,0.12 -1.57,0.37 -0.28,0.25 -0.42,0.56 -0.42,0.93 0,0.42 0.16,0.74 0.49,0.99 0.32,0.24 0.76,0.36 1.33,0.36 0.54,0 1.02,-0.13 1.45,-0.38 0.43,-0.26 0.74,-0.64 0.93,-1.13l0.5 1.49c-0.24,0.71 -0.67,1.26 -1.29,1.63 -0.62,0.37 -1.42,0.56 -2.4,0.56z"/>
   <path id="_15" class="fil0" d="M264.66 34.6c-0.57,0 -1.15,-0.09 -1.71,-0.27 -0.57,-0.18 -1.03,-0.43 -1.39,-0.75l1.18 -2.29c0.25,0.22 0.53,0.39 0.86,0.51 0.32,0.13 0.64,0.19 0.96,0.19 0.46,0 0.82,-0.11 1.09,-0.32 0.27,-0.22 0.51,-0.57 0.73,-1.07l0.58 -1.36 0.25 -0.36 4 -9.6 3.1 0 -5.03 11.82c-0.36,0.9 -0.77,1.6 -1.23,2.11 -0.46,0.51 -0.97,0.87 -1.53,1.08 -0.56,0.2 -1.18,0.31 -1.86,0.31zm1.91 -3.75l-4.97 -11.57 3.33 0 3.85 9.31 -2.21 2.26z"/>
   <path id="_16" class="fil0" d="M281.93 30.42l0 -2.18 -0.21 -0.47 0 -3.9c0,-0.68 -0.21,-1.22 -0.63,-1.61 -0.42,-0.39 -1.06,-0.58 -1.93,-0.58 -0.6,0 -1.18,0.09 -1.75,0.28 -0.58,0.19 -1.06,0.44 -1.46,0.76l-1.16 -2.26c0.61,-0.43 1.34,-0.76 2.19,-0.99 0.86,-0.24 1.73,-0.35 2.61,-0.35 1.7,0 3.02,0.4 3.96,1.2 0.93,0.8 1.4,2.04 1.4,3.74l0 6.36 -3.02 0zm-3.39 0.16c-0.87,0 -1.62,-0.15 -2.24,-0.44 -0.62,-0.3 -1.1,-0.7 -1.43,-1.21 -0.33,-0.51 -0.5,-1.09 -0.5,-1.72 0,-0.66 0.17,-1.24 0.49,-1.74 0.33,-0.5 0.84,-0.89 1.54,-1.17 0.71,-0.28 1.63,-0.43 2.76,-0.43l2.96 0 0 1.89 -2.61 0c-0.76,0 -1.28,0.12 -1.56,0.37 -0.29,0.25 -0.43,0.56 -0.43,0.93 0,0.42 0.16,0.74 0.49,0.99 0.32,0.24 0.77,0.36 1.33,0.36 0.54,0 1.02,-0.13 1.45,-0.38 0.43,-0.26 0.74,-0.64 0.93,-1.13l0.5 1.49c-0.23,0.71 -0.66,1.26 -1.28,1.63 -0.62,0.37 -1.42,0.56 -2.4,0.56z"/>
   <path id="_17" class="fil0" d="M289.06 30.42l6.45 -14.49 3.32 0 6.47 14.49 -3.51 0 -5.3 -12.8 1.32 0 -5.32 12.8 -3.43 0zm3.23 -3.11l0.89 -2.54 7.45 0 0.91 2.54 -9.25 0z"/>
   <path id="_18" class="fil0" d="M313.01 30.58c-0.98,0 -1.83,-0.21 -2.53,-0.62 -0.7,-0.41 -1.24,-1.04 -1.61,-1.89 -0.38,-0.85 -0.56,-1.93 -0.56,-3.22 0,-1.31 0.19,-2.39 0.59,-3.23 0.39,-0.84 0.94,-1.47 1.64,-1.88 0.71,-0.42 1.53,-0.62 2.47,-0.62 1.04,0 1.99,0.23 2.82,0.7 0.84,0.47 1.5,1.13 1.99,1.99 0.49,0.85 0.73,1.87 0.73,3.04 0,1.16 -0.24,2.16 -0.73,3.02 -0.49,0.86 -1.15,1.52 -1.99,2 -0.83,0.47 -1.78,0.71 -2.82,0.71zm-6.59 -0.16l0 -15.36 3.23 0 0 6.48 -0.2 3.29 0.06 3.31 0 2.28 -3.09 0zm6.03 -2.49c0.54,0 1.02,-0.12 1.44,-0.37 0.42,-0.25 0.76,-0.6 1.01,-1.07 0.26,-0.46 0.38,-1.01 0.38,-1.64 0,-0.65 -0.12,-1.2 -0.38,-1.66 -0.25,-0.45 -0.59,-0.8 -1.01,-1.05 -0.42,-0.25 -0.9,-0.38 -1.44,-0.38 -0.54,0 -1.02,0.13 -1.45,0.38 -0.43,0.25 -0.77,0.6 -1.02,1.05 -0.24,0.46 -0.37,1.01 -0.37,1.66 0,0.63 0.13,1.18 0.37,1.64 0.25,0.47 0.59,0.82 1.02,1.07 0.43,0.25 0.91,0.37 1.45,0.37z"/>
   <path id="_19" class="fil0" d="M327.19 30.42l0 -2.18 -0.21 -0.47 0 -3.9c0,-0.68 -0.21,-1.22 -0.63,-1.61 -0.42,-0.39 -1.07,-0.58 -1.94,-0.58 -0.59,0 -1.17,0.09 -1.75,0.28 -0.57,0.19 -1.05,0.44 -1.45,0.76l-1.16 -2.26c0.6,-0.43 1.33,-0.76 2.19,-0.99 0.86,-0.24 1.73,-0.35 2.61,-0.35 1.69,0 3.01,0.4 3.95,1.2 0.94,0.8 1.41,2.04 1.41,3.74l0 6.36 -3.02 0zm-3.4 0.16c-0.87,0 -1.61,-0.15 -2.23,-0.44 -0.62,-0.3 -1.1,-0.7 -1.43,-1.21 -0.33,-0.51 -0.5,-1.09 -0.5,-1.72 0,-0.66 0.16,-1.24 0.49,-1.74 0.32,-0.5 0.84,-0.89 1.54,-1.17 0.7,-0.28 1.62,-0.43 2.75,-0.43l2.96 0 0 1.89 -2.61 0c-0.75,0 -1.27,0.12 -1.56,0.37 -0.28,0.25 -0.42,0.56 -0.42,0.93 0,0.42 0.16,0.74 0.48,0.99 0.33,0.24 0.77,0.36 1.34,0.36 0.54,0 1.02,-0.13 1.45,-0.38 0.43,-0.26 0.74,-0.64 0.93,-1.13l0.5 1.49c-0.24,0.71 -0.67,1.26 -1.29,1.63 -0.62,0.37 -1.42,0.56 -2.4,0.56z"/>
   <path id="_20" class="fil0" d="M337.83 30.58c-1.05,0 -2,-0.24 -2.84,-0.71 -0.84,-0.48 -1.51,-1.14 -2,-2 -0.49,-0.86 -0.73,-1.86 -0.73,-3.02 0,-1.17 0.24,-2.19 0.73,-3.04 0.49,-0.86 1.16,-1.52 2,-1.99 0.84,-0.47 1.79,-0.7 2.84,-0.7 0.94,0 1.76,0.2 2.46,0.62 0.7,0.41 1.25,1.04 1.64,1.88 0.38,0.84 0.58,1.92 0.58,3.23 0,1.29 -0.19,2.37 -0.56,3.22 -0.38,0.85 -0.91,1.48 -1.61,1.89 -0.69,0.41 -1.53,0.62 -2.51,0.62zm0.56 -2.65c0.52,0 1,-0.12 1.42,-0.37 0.43,-0.25 0.77,-0.6 1.03,-1.07 0.25,-0.46 0.38,-1.01 0.38,-1.64 0,-0.65 -0.13,-1.2 -0.38,-1.66 -0.26,-0.45 -0.6,-0.8 -1.03,-1.05 -0.42,-0.25 -0.9,-0.38 -1.42,-0.38 -0.54,0 -1.03,0.13 -1.45,0.38 -0.43,0.25 -0.77,0.6 -1.03,1.05 -0.25,0.46 -0.38,1.01 -0.38,1.66 0,0.63 0.13,1.18 0.38,1.64 0.26,0.47 0.6,0.82 1.03,1.07 0.42,0.25 0.91,0.37 1.45,0.37zm2.92 2.49l0 -2.28 0.06 -3.31 -0.21 -3.29 0 -6.48 3.23 0 0 15.36 -3.08 0z"/>
   <path id="_21" class="fil0" d="M347.25 30.42l-0.04 -11.14 3.2 0.02 0.02 11.12 -3.18 0zm1.57 -12.69c-0.59,0 -1.08,-0.17 -1.45,-0.52 -0.37,-0.34 -0.56,-0.77 -0.56,-1.28 0,-0.51 0.19,-0.94 0.56,-1.29 0.37,-0.34 0.86,-0.51 1.45,-0.51 0.59,0 1.08,0.16 1.45,0.48 0.37,0.33 0.56,0.74 0.56,1.26 0,0.53 -0.18,0.98 -0.55,1.33 -0.37,0.35 -0.85,0.53 -1.46,0.53z"/>
   <path class="fil1" d="M93.91 46.03c-0.56,0 -1.08,-0.1 -1.56,-0.29 -0.48,-0.19 -0.9,-0.46 -1.27,-0.81 -0.35,-0.34 -0.64,-0.74 -0.84,-1.21 -0.2,-0.46 -0.3,-0.96 -0.3,-1.5 0,-0.53 0.1,-1.02 0.3,-1.48 0.2,-0.46 0.49,-0.86 0.84,-1.2 0.37,-0.35 0.79,-0.62 1.27,-0.82 0.48,-0.19 1,-0.29 1.56,-0.29 0.53,0 0.98,0.06 1.36,0.19 0.38,0.13 0.77,0.34 1.15,0.63 0.06,0.03 0.1,0.07 0.13,0.12 0.03,0.04 0.05,0.08 0.06,0.12 0.01,0.04 0.02,0.09 0.02,0.15 0,0.12 -0.05,0.22 -0.14,0.3 -0.09,0.08 -0.21,0.13 -0.34,0.13 -0.14,0.01 -0.26,-0.03 -0.38,-0.12 -0.25,-0.2 -0.51,-0.36 -0.78,-0.47 -0.28,-0.1 -0.63,-0.16 -1.08,-0.16 -0.4,0 -0.79,0.08 -1.14,0.23 -0.36,0.15 -0.67,0.36 -0.94,0.63 -0.28,0.26 -0.49,0.57 -0.64,0.92 -0.15,0.35 -0.22,0.73 -0.22,1.12 0,0.41 0.07,0.79 0.22,1.14 0.15,0.35 0.36,0.66 0.64,0.92 0.27,0.27 0.58,0.48 0.94,0.63 0.35,0.14 0.74,0.22 1.14,0.22 0.35,0 0.68,-0.06 0.99,-0.17 0.32,-0.11 0.62,-0.26 0.9,-0.46 0.13,-0.08 0.25,-0.12 0.37,-0.11 0.12,0.01 0.22,0.06 0.3,0.14 0.09,0.07 0.13,0.18 0.13,0.32 0,0.07 -0.02,0.13 -0.04,0.19 -0.02,0.06 -0.07,0.11 -0.13,0.16 -0.36,0.28 -0.76,0.49 -1.18,0.63 -0.43,0.13 -0.87,0.2 -1.34,0.2zm2.69 -1.18l-1.03 -0.19 0 -1.69 -1.42 0c-0.15,0 -0.28,-0.05 -0.38,-0.13 -0.11,-0.08 -0.16,-0.18 -0.16,-0.31 0,-0.13 0.05,-0.23 0.16,-0.31 0.1,-0.09 0.23,-0.13 0.38,-0.13l1.92 0c0.16,0 0.29,0.05 0.38,0.14 0.1,0.09 0.15,0.21 0.15,0.36l0 2.26z"/>
   <path id="_1_0" class="fil1" d="M99.29 45.93c-0.15,0 -0.28,-0.04 -0.38,-0.14 -0.1,-0.09 -0.15,-0.21 -0.15,-0.35l0 -6.42c0,-0.15 0.05,-0.27 0.15,-0.36 0.1,-0.09 0.23,-0.13 0.38,-0.13l4.65 0c0.16,0 0.29,0.04 0.38,0.12 0.1,0.09 0.15,0.2 0.15,0.34 0,0.13 -0.05,0.24 -0.15,0.32 -0.09,0.08 -0.22,0.13 -0.38,0.13l-4.11 0 0 2.3 2.95 0c0.16,0 0.29,0.04 0.38,0.13 0.1,0.09 0.15,0.19 0.15,0.33 0,0.13 -0.05,0.24 -0.15,0.32 -0.09,0.09 -0.22,0.13 -0.38,0.13l-2.95 0 0 2.37 4.11 0c0.16,0 0.29,0.04 0.38,0.13 0.1,0.08 0.15,0.19 0.15,0.32 0,0.14 -0.05,0.25 -0.15,0.34 -0.09,0.08 -0.22,0.12 -0.38,0.12l-4.65 0z"/>
   <path id="_2_1" class="fil1" d="M106.94 45.93c-0.15,0 -0.28,-0.04 -0.38,-0.14 -0.1,-0.09 -0.15,-0.21 -0.15,-0.35l0 -6.42c0,-0.15 0.05,-0.27 0.15,-0.36 0.1,-0.09 0.23,-0.13 0.38,-0.13 0.16,0 0.3,0.06 0.41,0.18l4.49 5.5 0 -5.19c0,-0.15 0.05,-0.27 0.15,-0.36 0.11,-0.09 0.23,-0.13 0.38,-0.13 0.16,0 0.29,0.04 0.38,0.13 0.1,0.09 0.15,0.21 0.15,0.36l0 6.42c0,0.14 -0.05,0.26 -0.15,0.35 -0.09,0.1 -0.22,0.14 -0.38,0.14 -0.07,0 -0.14,-0.01 -0.22,-0.04 -0.08,-0.03 -0.14,-0.07 -0.19,-0.13l-4.49 -5.5 0 5.18c0,0.14 -0.05,0.26 -0.15,0.35 -0.09,0.1 -0.22,0.14 -0.38,0.14z"/>
   <path id="_3_2" class="fil1" d="M115.94 45.93c-0.15,0 -0.27,-0.04 -0.38,-0.14 -0.1,-0.09 -0.15,-0.21 -0.15,-0.35l0 -6.42c0,-0.15 0.05,-0.27 0.15,-0.36 0.11,-0.09 0.23,-0.13 0.38,-0.13l4.66 0c0.15,0 0.28,0.04 0.38,0.12 0.09,0.09 0.14,0.2 0.14,0.34 0,0.13 -0.05,0.24 -0.14,0.32 -0.1,0.08 -0.23,0.13 -0.38,0.13l-4.12 0 0 2.3 2.95 0c0.16,0 0.29,0.04 0.38,0.13 0.1,0.09 0.15,0.19 0.15,0.33 0,0.13 -0.05,0.24 -0.15,0.32 -0.09,0.09 -0.22,0.13 -0.38,0.13l-2.95 0 0 2.37 4.12 0c0.15,0 0.28,0.04 0.38,0.13 0.09,0.08 0.14,0.19 0.14,0.32 0,0.14 -0.05,0.25 -0.14,0.34 -0.1,0.08 -0.23,0.12 -0.38,0.12l-4.66 0z"/>
   <path id="_4_3" class="fil1" d="M123.6 45.93c-0.15,0 -0.28,-0.04 -0.38,-0.14 -0.1,-0.09 -0.15,-0.21 -0.15,-0.35l0 -6.42c0,-0.15 0.05,-0.27 0.15,-0.36 0.1,-0.09 0.23,-0.13 0.38,-0.13l1.85 0c0.52,0 0.97,0.1 1.37,0.29 0.4,0.2 0.71,0.48 0.93,0.82 0.23,0.35 0.34,0.76 0.34,1.22 0,0.43 -0.11,0.81 -0.34,1.15 -0.22,0.33 -0.53,0.59 -0.93,0.78 -0.4,0.19 -0.85,0.29 -1.37,0.29l-1.31 0 0 2.36c0,0.14 -0.05,0.26 -0.15,0.35 -0.1,0.1 -0.23,0.14 -0.39,0.14zm4.27 0c-0.09,0 -0.18,-0.01 -0.26,-0.05 -0.08,-0.04 -0.15,-0.1 -0.2,-0.18l-1.85 -2.75 1.04 -0.28 1.68 2.51c0.13,0.18 0.14,0.35 0.06,0.51 -0.09,0.16 -0.25,0.24 -0.47,0.24zm-3.73 -3.76l1.31 0c0.32,0 0.6,-0.06 0.84,-0.17 0.24,-0.11 0.43,-0.26 0.56,-0.46 0.14,-0.2 0.21,-0.43 0.21,-0.68 0,-0.28 -0.07,-0.53 -0.21,-0.74 -0.13,-0.22 -0.32,-0.38 -0.56,-0.5 -0.24,-0.12 -0.52,-0.18 -0.84,-0.18l-1.31 0 0 2.73z"/>
   <path id="_5_4" class="fil1" d="M129.7 45.93c-0.19,0 -0.34,-0.07 -0.44,-0.22 -0.1,-0.16 -0.11,-0.32 -0.03,-0.49l2.89 -6.36c0.1,-0.22 0.27,-0.33 0.51,-0.33 0.24,0 0.41,0.11 0.5,0.33l2.9 6.38c0.08,0.18 0.07,0.34 -0.03,0.48 -0.1,0.14 -0.25,0.21 -0.45,0.21 -0.1,0 -0.2,-0.02 -0.29,-0.08 -0.1,-0.05 -0.16,-0.12 -0.21,-0.22l-2.55 -5.84 0.29 0 -2.59 5.84c-0.05,0.1 -0.12,0.18 -0.21,0.23 -0.1,0.05 -0.19,0.07 -0.29,0.07zm0.55 -1.63l0.41 -0.81 4.03 0 0.42 0.81 -4.86 0z"/>
   <path id="_6_5" class="fil1" d="M138.24 45.93c-0.16,0 -0.28,-0.04 -0.38,-0.14 -0.1,-0.09 -0.15,-0.21 -0.15,-0.35l0 -6.42c0,-0.14 0.05,-0.26 0.15,-0.35 0.11,-0.1 0.23,-0.14 0.38,-0.14 0.15,0 0.27,0.04 0.38,0.14 0.1,0.09 0.15,0.21 0.15,0.35l0 5.93 3.73 0c0.15,0 0.27,0.05 0.38,0.14 0.1,0.1 0.15,0.21 0.15,0.35 0,0.14 -0.05,0.26 -0.15,0.35 -0.11,0.1 -0.23,0.14 -0.38,0.14l-4.26 0z"/>
   <path id="_7_6" class="fil1" d="M150.05 46.03c-0.44,0 -0.86,-0.06 -1.26,-0.19 -0.39,-0.13 -0.74,-0.3 -1.03,-0.53 -0.3,-0.23 -0.52,-0.49 -0.65,-0.79 -0.07,-0.13 -0.07,-0.25 0,-0.37 0.07,-0.11 0.2,-0.19 0.37,-0.22 0.12,-0.02 0.24,-0.01 0.36,0.06 0.12,0.05 0.21,0.14 0.28,0.27 0.08,0.15 0.21,0.3 0.4,0.43 0.19,0.13 0.42,0.24 0.69,0.32 0.26,0.09 0.54,0.13 0.84,0.13 0.33,0 0.63,-0.05 0.91,-0.14 0.28,-0.1 0.5,-0.24 0.67,-0.42 0.18,-0.18 0.26,-0.4 0.26,-0.67 0,-0.33 -0.14,-0.63 -0.43,-0.9 -0.28,-0.26 -0.75,-0.43 -1.4,-0.49 -0.85,-0.08 -1.52,-0.31 -2.01,-0.69 -0.48,-0.39 -0.73,-0.87 -0.73,-1.44 0,-0.41 0.13,-0.77 0.38,-1.06 0.26,-0.29 0.6,-0.51 1.04,-0.66 0.43,-0.15 0.92,-0.23 1.45,-0.23 0.42,0 0.79,0.05 1.1,0.16 0.31,0.11 0.59,0.26 0.82,0.45 0.23,0.19 0.43,0.41 0.61,0.67 0.09,0.14 0.13,0.27 0.11,0.4 -0.01,0.12 -0.08,0.21 -0.2,0.28 -0.13,0.08 -0.27,0.1 -0.42,0.05 -0.15,-0.04 -0.26,-0.12 -0.34,-0.25 -0.11,-0.18 -0.24,-0.33 -0.4,-0.46 -0.16,-0.13 -0.34,-0.23 -0.56,-0.3 -0.21,-0.07 -0.46,-0.11 -0.75,-0.11 -0.5,0 -0.93,0.08 -1.27,0.26 -0.35,0.18 -0.52,0.46 -0.52,0.83 0,0.19 0.06,0.38 0.16,0.55 0.11,0.17 0.3,0.32 0.59,0.45 0.28,0.13 0.69,0.21 1.23,0.26 0.81,0.08 1.45,0.31 1.91,0.69 0.45,0.38 0.68,0.89 0.68,1.52 0,0.36 -0.08,0.67 -0.24,0.93 -0.16,0.27 -0.38,0.49 -0.65,0.67 -0.27,0.18 -0.58,0.32 -0.93,0.41 -0.34,0.08 -0.7,0.13 -1.07,0.13z"/>
   <path id="_8_7" class="fil1" d="M158.4 46.09c-0.66,0 -1.25,-0.12 -1.75,-0.34 -0.51,-0.23 -0.91,-0.53 -1.19,-0.93 -0.29,-0.4 -0.43,-0.85 -0.43,-1.37l0 -4.43c0,-0.15 0.05,-0.27 0.16,-0.36 0.1,-0.09 0.23,-0.13 0.38,-0.13 0.15,0 0.27,0.04 0.38,0.13 0.1,0.09 0.15,0.21 0.15,0.36l0 4.43c0,0.35 0.1,0.65 0.29,0.91 0.2,0.26 0.47,0.46 0.82,0.61 0.34,0.15 0.74,0.22 1.19,0.22 0.42,0 0.8,-0.07 1.13,-0.21 0.34,-0.15 0.6,-0.35 0.79,-0.62 0.19,-0.26 0.29,-0.56 0.29,-0.91l0 -4.43c0,-0.15 0.05,-0.27 0.15,-0.36 0.11,-0.09 0.23,-0.13 0.37,-0.13 0.17,0 0.3,0.04 0.4,0.13 0.09,0.09 0.14,0.21 0.14,0.36l0 4.43c0,0.52 -0.14,0.97 -0.42,1.37 -0.28,0.4 -0.66,0.7 -1.15,0.93 -0.5,0.22 -1.07,0.34 -1.7,0.34z"/>
   <path id="_9_8" class="fil1" d="M164.72 45.93c-0.16,0 -0.28,-0.04 -0.38,-0.14 -0.11,-0.09 -0.16,-0.21 -0.16,-0.35l0 -6.42c0,-0.15 0.05,-0.27 0.16,-0.36 0.1,-0.09 0.22,-0.13 0.38,-0.13l2.05 0c0.52,0 0.97,0.1 1.37,0.31 0.39,0.21 0.7,0.5 0.93,0.86 0.22,0.37 0.34,0.8 0.34,1.28 0,0.46 -0.11,0.88 -0.34,1.24 -0.22,0.36 -0.53,0.64 -0.93,0.84 -0.4,0.2 -0.85,0.3 -1.37,0.3l-1.52 0 0 2.08c0,0.14 -0.05,0.26 -0.15,0.35 -0.11,0.1 -0.23,0.14 -0.38,0.14zm0.53 -3.48l1.52 0c0.32,0 0.6,-0.06 0.84,-0.19 0.24,-0.12 0.43,-0.3 0.56,-0.52 0.14,-0.22 0.21,-0.47 0.21,-0.76 0,-0.31 -0.07,-0.58 -0.2,-0.81 -0.13,-0.23 -0.32,-0.41 -0.57,-0.54 -0.24,-0.13 -0.52,-0.19 -0.84,-0.19l-1.52 0 0 3.01z"/>
   <path id="_10_9" class="fil1" d="M171.58 45.93c-0.15,0 -0.28,-0.04 -0.38,-0.14 -0.1,-0.09 -0.15,-0.21 -0.15,-0.35l0 -6.42c0,-0.15 0.05,-0.27 0.15,-0.36 0.1,-0.09 0.23,-0.13 0.38,-0.13l2.06 0c0.51,0 0.97,0.1 1.36,0.31 0.4,0.21 0.71,0.5 0.93,0.86 0.23,0.37 0.34,0.8 0.34,1.28 0,0.46 -0.11,0.88 -0.33,1.24 -0.22,0.36 -0.53,0.64 -0.93,0.84 -0.4,0.2 -0.86,0.3 -1.37,0.3l-1.52 0 0 2.08c0,0.14 -0.06,0.26 -0.16,0.35 -0.1,0.1 -0.23,0.14 -0.38,0.14zm0.54 -3.48l1.52 0c0.31,0 0.59,-0.06 0.83,-0.19 0.24,-0.12 0.43,-0.3 0.57,-0.52 0.14,-0.22 0.2,-0.47 0.2,-0.76 0,-0.31 -0.06,-0.58 -0.2,-0.81 -0.13,-0.23 -0.32,-0.41 -0.56,-0.54 -0.25,-0.13 -0.53,-0.19 -0.84,-0.19l-1.52 0 0 3.01z"/>
   <path id="_11_10" class="fil1" d="M178.44 45.93c-0.16,0 -0.28,-0.04 -0.38,-0.14 -0.1,-0.09 -0.15,-0.21 -0.15,-0.35l0 -6.42c0,-0.14 0.05,-0.26 0.15,-0.35 0.11,-0.1 0.23,-0.14 0.38,-0.14 0.15,0 0.27,0.04 0.38,0.14 0.1,0.09 0.15,0.21 0.15,0.35l0 5.93 3.73 0c0.15,0 0.27,0.05 0.38,0.14 0.1,0.1 0.15,0.21 0.15,0.35 0,0.14 -0.05,0.26 -0.15,0.35 -0.11,0.1 -0.23,0.14 -0.38,0.14l-4.26 0z"/>
   <path id="_12_11" class="fil1" d="M185.51 45.93c-0.16,0 -0.28,-0.04 -0.39,-0.14 -0.1,-0.09 -0.15,-0.21 -0.15,-0.35l0 -6.42c0,-0.15 0.05,-0.27 0.15,-0.36 0.11,-0.09 0.23,-0.13 0.39,-0.13 0.15,0 0.28,0.04 0.38,0.13 0.1,0.09 0.15,0.21 0.15,0.36l0 6.42c0,0.14 -0.05,0.26 -0.15,0.35 -0.1,0.1 -0.23,0.14 -0.38,0.14z"/>
   <path id="_13_12" class="fil1" d="M189.09 45.93c-0.15,0 -0.28,-0.04 -0.38,-0.14 -0.11,-0.09 -0.16,-0.21 -0.16,-0.35l0 -6.42c0,-0.15 0.05,-0.27 0.16,-0.36 0.1,-0.09 0.23,-0.13 0.38,-0.13l4.65 0c0.16,0 0.28,0.04 0.38,0.12 0.09,0.09 0.14,0.2 0.14,0.34 0,0.13 -0.05,0.24 -0.14,0.32 -0.1,0.08 -0.22,0.13 -0.38,0.13l-4.12 0 0 2.3 2.95 0c0.16,0 0.29,0.04 0.39,0.13 0.09,0.09 0.14,0.19 0.14,0.33 0,0.13 -0.05,0.24 -0.14,0.32 -0.1,0.09 -0.23,0.13 -0.39,0.13l-2.95 0 0 2.37 4.12 0c0.16,0 0.28,0.04 0.38,0.13 0.09,0.08 0.14,0.19 0.14,0.32 0,0.14 -0.05,0.25 -0.14,0.34 -0.1,0.08 -0.22,0.12 -0.38,0.12l-4.65 0z"/>
   <path id="_14_13" class="fil1" d="M196.74 45.93c-0.15,0 -0.28,-0.04 -0.38,-0.14 -0.1,-0.09 -0.15,-0.21 -0.15,-0.35l0 -6.42c0,-0.15 0.05,-0.27 0.15,-0.36 0.1,-0.09 0.23,-0.13 0.38,-0.13l1.86 0c0.51,0 0.97,0.1 1.36,0.29 0.4,0.2 0.71,0.48 0.94,0.82 0.22,0.35 0.33,0.76 0.33,1.22 0,0.43 -0.11,0.81 -0.33,1.15 -0.23,0.33 -0.54,0.59 -0.94,0.78 -0.39,0.19 -0.85,0.29 -1.36,0.29l-1.32 0 0 2.36c0,0.14 -0.05,0.26 -0.15,0.35 -0.1,0.1 -0.23,0.14 -0.39,0.14zm4.27 0c-0.09,0 -0.18,-0.01 -0.26,-0.05 -0.08,-0.04 -0.15,-0.1 -0.2,-0.18l-1.85 -2.75 1.04 -0.28 1.69 2.51c0.12,0.18 0.14,0.35 0.05,0.51 -0.09,0.16 -0.25,0.24 -0.47,0.24zm-3.73 -3.76l1.32 0c0.31,0 0.59,-0.06 0.83,-0.17 0.24,-0.11 0.43,-0.26 0.56,-0.46 0.14,-0.2 0.21,-0.43 0.21,-0.68 0,-0.28 -0.07,-0.53 -0.21,-0.74 -0.13,-0.22 -0.32,-0.38 -0.56,-0.5 -0.24,-0.12 -0.52,-0.18 -0.83,-0.18l-1.32 0 0 2.73z"/>
   <path id="_15_14" class="fil1" d="M209.49 46.03c-0.55,0 -1.07,-0.1 -1.56,-0.29 -0.48,-0.19 -0.9,-0.46 -1.26,-0.81 -0.36,-0.34 -0.64,-0.74 -0.84,-1.21 -0.21,-0.46 -0.31,-0.96 -0.31,-1.5 0,-0.53 0.1,-1.02 0.31,-1.48 0.2,-0.46 0.48,-0.86 0.84,-1.2 0.36,-0.35 0.78,-0.62 1.26,-0.82 0.48,-0.19 1,-0.29 1.56,-0.29 0.53,0 0.99,0.06 1.37,0.19 0.38,0.13 0.76,0.34 1.14,0.63 0.06,0.03 0.1,0.07 0.13,0.12 0.03,0.04 0.06,0.08 0.07,0.12 0.01,0.04 0.01,0.09 0.01,0.15 0,0.12 -0.05,0.22 -0.14,0.29 -0.09,0.08 -0.2,0.13 -0.33,0.14 -0.13,0.01 -0.26,-0.03 -0.38,-0.12 -0.26,-0.2 -0.52,-0.36 -0.79,-0.47 -0.27,-0.1 -0.63,-0.16 -1.08,-0.16 -0.4,0 -0.78,0.08 -1.14,0.23 -0.36,0.15 -0.67,0.36 -0.94,0.63 -0.27,0.26 -0.48,0.57 -0.63,0.92 -0.15,0.35 -0.23,0.73 -0.23,1.12 0,0.41 0.08,0.79 0.23,1.14 0.15,0.35 0.36,0.66 0.63,0.92 0.27,0.27 0.58,0.48 0.94,0.63 0.36,0.14 0.74,0.22 1.14,0.22 0.35,0 0.69,-0.06 1,-0.17 0.31,-0.11 0.61,-0.26 0.9,-0.46 0.12,-0.08 0.24,-0.12 0.36,-0.11 0.12,0.01 0.22,0.06 0.31,0.14 0.08,0.07 0.12,0.18 0.12,0.32 0,0.07 -0.01,0.13 -0.04,0.19 -0.03,0.06 -0.07,0.11 -0.12,0.16 -0.37,0.27 -0.77,0.48 -1.19,0.62 -0.43,0.14 -0.87,0.21 -1.34,0.21z"/>
   <path id="_16_15" class="fil1" d="M218.06 46.03c-0.61,0 -1.16,-0.09 -1.66,-0.28 -0.5,-0.19 -0.93,-0.45 -1.29,-0.79 -0.36,-0.34 -0.64,-0.74 -0.84,-1.2 -0.2,-0.47 -0.3,-0.98 -0.3,-1.54 0,-0.55 0.1,-1.06 0.3,-1.52 0.2,-0.46 0.48,-0.86 0.84,-1.2 0.36,-0.34 0.79,-0.6 1.29,-0.79 0.5,-0.19 1.05,-0.28 1.66,-0.28 0.6,0 1.15,0.09 1.65,0.28 0.5,0.19 0.93,0.45 1.29,0.79 0.36,0.34 0.64,0.74 0.84,1.2 0.2,0.46 0.3,0.97 0.3,1.52 0,0.56 -0.1,1.07 -0.3,1.54 -0.2,0.46 -0.48,0.86 -0.84,1.2 -0.36,0.34 -0.79,0.6 -1.29,0.79 -0.5,0.19 -1.05,0.28 -1.65,0.28zm0 -0.89c0.44,0 0.85,-0.08 1.23,-0.23 0.37,-0.14 0.69,-0.35 0.97,-0.61 0.27,-0.26 0.48,-0.57 0.63,-0.93 0.15,-0.35 0.22,-0.73 0.22,-1.15 0,-0.41 -0.07,-0.79 -0.22,-1.14 -0.15,-0.36 -0.36,-0.66 -0.63,-0.93 -0.28,-0.26 -0.6,-0.46 -0.97,-0.61 -0.38,-0.15 -0.79,-0.22 -1.23,-0.22 -0.45,0 -0.86,0.07 -1.23,0.22 -0.38,0.15 -0.7,0.35 -0.97,0.61 -0.27,0.27 -0.48,0.57 -0.63,0.93 -0.15,0.35 -0.23,0.73 -0.23,1.14 0,0.42 0.08,0.8 0.23,1.15 0.15,0.36 0.36,0.67 0.63,0.93 0.27,0.26 0.59,0.47 0.97,0.61 0.37,0.15 0.78,0.23 1.23,0.23z"/>
   <path id="_17_16" class="fil1" d="M224.81 45.93c-0.15,0 -0.28,-0.04 -0.38,-0.14 -0.11,-0.09 -0.16,-0.21 -0.16,-0.35l0 -6.42c0,-0.15 0.05,-0.27 0.16,-0.36 0.1,-0.09 0.23,-0.13 0.38,-0.13 0.2,0 0.36,0.08 0.47,0.26l3.22 5.95 -0.33 0 3.14 -5.95c0.11,-0.18 0.27,-0.26 0.48,-0.26 0.15,0 0.27,0.04 0.38,0.13 0.1,0.09 0.15,0.21 0.15,0.36l0 6.42c0,0.14 -0.05,0.26 -0.16,0.35 -0.1,0.1 -0.23,0.14 -0.37,0.14 -0.16,0 -0.28,-0.04 -0.38,-0.14 -0.11,-0.09 -0.16,-0.21 -0.16,-0.35l0 -5.06 0.21 -0.04 -2.7 5.06c-0.12,0.17 -0.27,0.25 -0.46,0.25 -0.23,0 -0.39,-0.1 -0.5,-0.29l-2.66 -4.93 0.2 -0.05 0 5.06c0,0.14 -0.05,0.26 -0.15,0.35 -0.1,0.1 -0.23,0.14 -0.38,0.14z"/>
   <path id="_18_17" class="fil1" d="M235.37 45.93c-0.15,0 -0.28,-0.04 -0.38,-0.14 -0.11,-0.09 -0.16,-0.21 -0.16,-0.35l0 -6.42c0,-0.15 0.05,-0.27 0.16,-0.36 0.1,-0.09 0.23,-0.13 0.38,-0.13l2.05 0c0.52,0 0.97,0.1 1.37,0.31 0.39,0.21 0.7,0.5 0.93,0.86 0.23,0.37 0.34,0.8 0.34,1.28 0,0.46 -0.11,0.88 -0.33,1.24 -0.23,0.36 -0.54,0.64 -0.94,0.84 -0.39,0.2 -0.85,0.3 -1.37,0.3l-1.52 0 0 2.08c0,0.14 -0.05,0.26 -0.15,0.35 -0.11,0.1 -0.23,0.14 -0.38,0.14zm0.53 -3.48l1.52 0c0.32,0 0.6,-0.06 0.84,-0.19 0.24,-0.12 0.43,-0.3 0.57,-0.52 0.13,-0.22 0.2,-0.47 0.2,-0.76 0,-0.31 -0.07,-0.58 -0.2,-0.81 -0.13,-0.23 -0.32,-0.41 -0.57,-0.54 -0.24,-0.13 -0.52,-0.19 -0.84,-0.19l-1.52 0 0 3.01z"/>
   <path id="_19_18" class="fil1" d="M241.07 45.93c-0.19,0 -0.34,-0.07 -0.44,-0.22 -0.11,-0.16 -0.12,-0.32 -0.04,-0.49l2.9 -6.36c0.1,-0.22 0.27,-0.33 0.5,-0.33 0.25,0 0.42,0.11 0.51,0.33l2.9 6.38c0.07,0.18 0.06,0.34 -0.04,0.48 -0.1,0.14 -0.25,0.21 -0.45,0.21 -0.1,0 -0.2,-0.02 -0.29,-0.08 -0.09,-0.05 -0.16,-0.12 -0.2,-0.22l-2.55 -5.84 0.29 0 -2.6 5.84c-0.05,0.1 -0.12,0.18 -0.21,0.23 -0.09,0.05 -0.18,0.07 -0.28,0.07zm0.54 -1.63l0.41 -0.81 4.04 0 0.41 0.81 -4.86 0z"/>
   <path id="_20_19" class="fil1" d="M249.6 45.93c-0.15,0 -0.28,-0.04 -0.38,-0.14 -0.1,-0.09 -0.14,-0.21 -0.14,-0.35l0 -6.42c0,-0.15 0.04,-0.27 0.14,-0.36 0.1,-0.09 0.23,-0.13 0.38,-0.13 0.16,0 0.3,0.06 0.41,0.18l4.49 5.5 0 -5.19c0,-0.15 0.05,-0.27 0.15,-0.36 0.11,-0.09 0.23,-0.13 0.38,-0.13 0.16,0 0.29,0.04 0.39,0.13 0.09,0.09 0.14,0.21 0.14,0.36l0 6.42c0,0.14 -0.05,0.26 -0.14,0.35 -0.1,0.1 -0.23,0.14 -0.39,0.14 -0.06,0 -0.14,-0.01 -0.22,-0.04 -0.08,-0.03 -0.14,-0.07 -0.19,-0.13l-4.48 -5.5 0 5.18c0,0.14 -0.06,0.26 -0.15,0.35 -0.1,0.1 -0.23,0.14 -0.39,0.14z"/>
   <path id="_21_20" class="fil1" d="M260.48 45.93c-0.15,0 -0.27,-0.04 -0.37,-0.14 -0.11,-0.09 -0.16,-0.21 -0.16,-0.35l0 -2.21 -2.74 -3.94c-0.09,-0.13 -0.13,-0.25 -0.11,-0.37 0.02,-0.12 0.08,-0.21 0.18,-0.28 0.1,-0.08 0.22,-0.11 0.35,-0.11 0.11,0 0.21,0.02 0.28,0.07 0.06,0.04 0.13,0.11 0.19,0.2l2.61 3.82 -0.41 0 2.66 -3.86c0.05,-0.07 0.12,-0.13 0.19,-0.17 0.08,-0.04 0.17,-0.06 0.28,-0.06 0.13,0 0.23,0.04 0.31,0.11 0.08,0.08 0.13,0.18 0.14,0.3 0.02,0.12 -0.02,0.23 -0.1,0.35l-2.77 3.94 0 2.21c0,0.14 -0.05,0.26 -0.15,0.35 -0.1,0.1 -0.23,0.14 -0.38,0.14z"/>
   <path class="fil2" d="M45.48 56.92c4.29,-2.1 8.22,-4.66 11.7,-7.54l2.78 2.78 0 -10.26 -10.26 0 2.78 2.78c-0.27,0.28 -0.59,0.51 -0.99,0.71 -0.41,0.27 -0.84,0.51 -1.28,0.73l-11.97 0 10.55 -29.56 10.56 0 7.84 21.98c5.59,-8.16 7.86,-17.07 5.44,-24.56 -4.56,-14.13 -24.12,-17.81 -43.68,-8.22 -2.68,1.31 -5.21,2.8 -7.58,4.43l-3.89 -3.89 0 6.81 0 3.45 8.39 0 1.87 0 3.56 0 4.39 0 4.06 0 0 14.78c0,9.85 -4.23,14.78 -12.67,14.78l-3.1 0 0 -8.44 3.1 0c2.82,0 4.22,-2.11 4.22,-6.34l0 -6.33 -3.56 0 -1.87 0 -5.51 0 0 21.11 -8.45 0 0 -21.11 -5.25 0c-5.16,7.92 -7.2,16.47 -4.86,23.7 4.56,14.12 24.12,17.8 43.68,8.21zm-10.51 -50.97l7.3 0 0 7.3 -7.3 0 0 -7.3zm19.1 19.48l-2.87 8.02 5.74 0 -2.87 -8.02z"/>
  </g>
 </g>
</svg>
