<?xml version="1.0" encoding="UTF-8"?>
<!DOCTYPE svg PUBLIC "-//W3C//DTD SVG 1.1//EN" "http://www.w3.org/Graphics/SVG/1.1/DTD/svg11.dtd">
<!-- Creator: CorelDRAW 2021.5 -->
<svg xmlns="http://www.w3.org/2000/svg" xml:space="preserve" width="2000px" height="2000px" version="1.1" style="shape-rendering:geometricPrecision; text-rendering:geometricPrecision; image-rendering:optimizeQuality; fill-rule:evenodd; clip-rule:evenodd"
viewBox="0 0 2000 2000"
 xmlns:xlink="http://www.w3.org/1999/xlink"
 xmlns:xodm="http://www.corel.com/coreldraw/odm/2003">
 <defs>
  <style type="text/css">
   <![CDATA[
    .fil0 {fill:#203185}
    .fil1 {fill:#FFB300}
   ]]>
  </style>
    <mask id="id0">
  <linearGradient id="id1" gradientUnits="userSpaceOnUse" x1="1269.29" y1="1850.64" x2="1052.67" y2="1419.16">
   <stop offset="0" style="stop-opacity:1; stop-color:white"/>
   <stop offset="0.321569" style="stop-opacity:0.501961; stop-color:white"/>
   <stop offset="1" style="stop-opacity:0; stop-color:white"/>
  </linearGradient>
     <rect style="fill:url(#id1)" x="527.48" y="1372.36" width="803.5" height="259.37"/>
    </mask>
    <mask id="id2">
  <linearGradient id="id3" gradientUnits="userSpaceOnUse" x1="616.12" y1="104.28" x2="1007.71" y2="546.33">
   <stop offset="0" style="stop-opacity:1; stop-color:white"/>
   <stop offset="0.321569" style="stop-opacity:0.501961; stop-color:white"/>
   <stop offset="1" style="stop-opacity:0; stop-color:white"/>
  </linearGradient>
     <rect style="fill:url(#id3)" x="706.02" y="328.52" width="781.25" height="299.11"/>
    </mask>
     <clipPath id="id4">
      <path d="M879.38 307.95l332.63 0 0 332.61 -332.63 0 0 -332.61z"/>
     </clipPath>
 </defs>
 <g id="Layer_x0020_1">
  <metadata id="CorelCorpID_0Corel-Layer"/>
  <g id="_1425669677120">
   <path class="fil0" d="M1209.37 1647.8c108.59,-53.24 208.14,-118.2 296.22,-190.95l70.36 70.39 0 -259.9 -259.88 0 70.37 70.38c-6.59,7.1 -14.88,13.01 -24.89,17.89 -10.54,6.86 -21.39,13.08 -32.5,18.67l-303.11 0 267.16 -748.58 267.35 0 198.75 556.51c141.39,-206.56 199.03,-432.37 137.75,-621.92 -115.64,-357.78 -610.97,-450.95 -1106.34,-208.09 -67.66,33.15 -131.82,70.86 -191.83,112.16l-98.53 -98.53 0 172.47 0 87.4 212.34 0 47.53 0 90.11 0 111.17 0 102.69 0 0 374.29c0,249.46 -106.92,374.29 -320.8,374.29l-78.47 0 0 -213.89 78.47 0c71.36,0 106.94,-53.47 106.94,-160.4l0 -160.4 -90.11 0 -47.53 0 -139.54 0 0 534.69 -213.86 0 0 -534.69 -132.96 0c-130.7,200.53 -182.3,417.19 -123.21,600.09 115.64,357.8 611,450.94 1106.35,208.12zm217.49 -797.45l-72.82 203.11 145.45 0 -72.63 -203.11z"/>
   <path class="fil0" style="mask:url(#id0)" d="M1025.93 1374.29l303.12 0c-251.83,167.95 -518.38,253.12 -799.64,255.51 281.94,-81.46 447.45,-166.63 496.52,-255.51z"/>
   <path class="fil0" style="mask:url(#id2)" d="M970.01 625.7l-209.89 0 -52.17 -56.04c246.85,-153.01 501.7,-237.03 777.39,-239.21 -276.36,74.22 -467.23,214.28 -515.33,295.25z"/>
   <g>
    <g style="clip-path:url(#id4)">
     <image x="879.38" y="307.95" width="332.63" height="332.62" xlink:href="logo_Images\logo_ImgID1.png"/>
    </g>
   </g>
   <polygon class="fil1" points="943.18,357.01 1127.98,357.01 1127.98,541.81 943.18,541.81 "/>
  </g>
 </g>
</svg>
