<?xml version="1.0" encoding="UTF-8"?>
<!DOCTYPE svg PUBLIC "-//W3C//DTD SVG 1.1//EN" "http://www.w3.org/Graphics/SVG/1.1/DTD/svg11.dtd">
<!-- Creator: CorelDRAW 2021.5 -->
<svg xmlns="http://www.w3.org/2000/svg" xml:space="preserve" width="250px" height="100px" version="1.1" style="shape-rendering:geometricPrecision; text-rendering:geometricPrecision; image-rendering:optimizeQuality; fill-rule:evenodd; clip-rule:evenodd"
viewBox="0 0 250 100"
 xmlns:xlink="http://www.w3.org/1999/xlink"
 xmlns:xodm="http://www.corel.com/coreldraw/odm/2003">
 <defs>
  <style type="text/css">
   <![CDATA[
    .fil2 {fill:white}
    .fil1 {fill:#F5F8FD;fill-rule:nonzero}
    .fil0 {fill:white;fill-rule:nonzero}
   ]]>
  </style>
 </defs>
 <g id="Layer_x0020_1">
  <metadata id="CorelCorpID_0Corel-Layer"/>
  <g id="_2564420193520">
   <path class="fil0" d="M63.65 22.24l0 -10.34 4.48 0c0.92,0 1.72,0.15 2.39,0.45 0.67,0.3 1.19,0.73 1.55,1.29 0.37,0.56 0.55,1.23 0.55,2.01 0,0.77 -0.18,1.43 -0.55,2 -0.36,0.56 -0.88,0.99 -1.55,1.29 -0.67,0.3 -1.47,0.45 -2.39,0.45l-3.15 0 1.06 -1.08 0 3.93 -2.39 0zm2.39 -3.66l-1.06 -1.14 3.01 0c0.74,0 1.29,-0.16 1.66,-0.47 0.36,-0.32 0.54,-0.76 0.54,-1.32 0,-0.57 -0.18,-1.01 -0.54,-1.33 -0.37,-0.31 -0.92,-0.47 -1.66,-0.47l-3.01 0 1.06 -1.14 0 5.87z"/>
   <polygon id="_1" class="fil0" points="76.08,22.24 76.06,13.85 72.75,13.85 72.75,11.9 81.76,11.9 81.77,13.85 78.44,13.85 78.46,22.24 "/>
   <path id="_2" class="fil0" d="M83.16 22.36c-0.39,0 -0.73,-0.13 -1.01,-0.4 -0.28,-0.27 -0.42,-0.62 -0.42,-1.05 0,-0.42 0.14,-0.76 0.42,-1.02 0.28,-0.26 0.62,-0.4 1.01,-0.4 0.41,0 0.75,0.14 1.02,0.4 0.28,0.26 0.42,0.6 0.42,1.02 0,0.43 -0.14,0.78 -0.42,1.05 -0.27,0.27 -0.61,0.4 -1.02,0.4z"/>
   <polygon id="_3" class="fil0" points="90.53,22.24 90.51,13.85 87.2,13.85 87.2,11.9 96.2,11.9 96.22,13.85 92.89,13.85 92.91,22.24 "/>
   <path id="_4" class="fil0" d="M101.71 22.24l0 -1.55 -0.15 -0.34 0 -2.78c0,-0.49 -0.15,-0.87 -0.45,-1.15 -0.3,-0.28 -0.76,-0.41 -1.39,-0.41 -0.42,0 -0.84,0.06 -1.24,0.2 -0.41,0.13 -0.76,0.31 -1.05,0.53l-0.82 -1.61c0.43,-0.3 0.95,-0.54 1.56,-0.71 0.61,-0.16 1.23,-0.25 1.86,-0.25 1.22,0 2.16,0.29 2.83,0.86 0.67,0.57 1,1.46 1,2.68l0 4.53 -2.15 0zm-2.43 0.12c-0.62,0 -1.15,-0.1 -1.6,-0.32 -0.44,-0.21 -0.78,-0.5 -1.02,-0.86 -0.23,-0.37 -0.35,-0.77 -0.35,-1.23 0,-0.47 0.12,-0.88 0.35,-1.24 0.23,-0.35 0.6,-0.63 1.1,-0.83 0.5,-0.21 1.16,-0.31 1.96,-0.31l2.12 0 0 1.35 -1.86 0c-0.55,0 -0.92,0.09 -1.12,0.26 -0.2,0.18 -0.3,0.4 -0.3,0.67 0,0.29 0.11,0.53 0.34,0.7 0.24,0.17 0.55,0.26 0.96,0.26 0.38,0 0.73,-0.09 1.03,-0.27 0.31,-0.19 0.53,-0.45 0.67,-0.81l0.35 1.07c-0.17,0.51 -0.47,0.9 -0.91,1.16 -0.45,0.27 -1.02,0.4 -1.72,0.4z"/>
   <path id="_5" class="fil0" d="M109.73 22.36c-0.85,0 -1.62,-0.17 -2.29,-0.52 -0.67,-0.35 -1.19,-0.84 -1.57,-1.46 -0.38,-0.62 -0.57,-1.32 -0.57,-2.11 0,-0.8 0.19,-1.51 0.57,-2.12 0.38,-0.62 0.9,-1.1 1.57,-1.45 0.67,-0.35 1.44,-0.53 2.29,-0.53 0.84,0 1.57,0.18 2.19,0.53 0.62,0.35 1.08,0.85 1.38,1.5l-1.79 0.96c-0.21,-0.38 -0.47,-0.65 -0.78,-0.83 -0.31,-0.18 -0.65,-0.26 -1.01,-0.26 -0.39,0 -0.75,0.08 -1.07,0.26 -0.31,0.18 -0.56,0.43 -0.74,0.75 -0.18,0.33 -0.27,0.72 -0.27,1.19 0,0.46 0.09,0.85 0.27,1.18 0.18,0.33 0.43,0.58 0.74,0.75 0.32,0.18 0.68,0.27 1.07,0.27 0.36,0 0.7,-0.09 1.01,-0.26 0.31,-0.17 0.57,-0.45 0.78,-0.83l1.79 0.97c-0.3,0.64 -0.76,1.14 -1.38,1.49 -0.62,0.35 -1.35,0.52 -2.19,0.52z"/>
   <path id="_6" class="fil0" d="M119.28 14.17c0.64,0 1.2,0.13 1.7,0.38 0.5,0.25 0.89,0.64 1.17,1.15 0.29,0.52 0.43,1.18 0.43,1.99l0 4.55 -2.3 0 0 -4.19c0,-0.65 -0.14,-1.12 -0.43,-1.42 -0.28,-0.31 -0.67,-0.46 -1.19,-0.46 -0.36,0 -0.69,0.07 -0.98,0.23 -0.29,0.15 -0.52,0.38 -0.68,0.7 -0.16,0.32 -0.24,0.72 -0.24,1.21l0 3.93 -2.31 0 0 -10.96 2.31 0 0 5.21 -0.52 -0.66c0.29,-0.53 0.7,-0.94 1.23,-1.23 0.53,-0.28 1.14,-0.43 1.81,-0.43z"/>
   <path id="_7" class="fil0" d="M124.58 22.24l-0.03 -7.95 2.29 0.02 0.02 7.93 -2.28 0zm1.12 -9.06c-0.42,0 -0.77,-0.12 -1.03,-0.37 -0.27,-0.24 -0.4,-0.55 -0.4,-0.91 0,-0.37 0.13,-0.67 0.4,-0.92 0.26,-0.25 0.61,-0.37 1.03,-0.37 0.43,0 0.77,0.12 1.04,0.35 0.27,0.23 0.4,0.53 0.4,0.89 0,0.39 -0.13,0.7 -0.39,0.96 -0.27,0.25 -0.61,0.37 -1.05,0.37z"/>
   <path id="_8" class="fil0" d="M133.72 14.17c0.63,0 1.19,0.13 1.69,0.38 0.5,0.25 0.89,0.64 1.18,1.15 0.28,0.52 0.42,1.18 0.42,1.99l0 4.55 -2.3 0 0 -4.19c0,-0.65 -0.14,-1.12 -0.42,-1.42 -0.28,-0.31 -0.68,-0.46 -1.19,-0.46 -0.37,0 -0.69,0.07 -0.99,0.23 -0.29,0.15 -0.51,0.38 -0.68,0.7 -0.16,0.32 -0.24,0.72 -0.24,1.21l0 3.93 -2.31 0 0 -7.95 2.21 0 0 2.2 -0.42 -0.66c0.29,-0.53 0.7,-0.94 1.23,-1.23 0.53,-0.28 1.14,-0.43 1.82,-0.43z"/>
   <path id="_9" class="fil0" d="M143.86 22.24l0 -1.55 -0.15 -0.34 0 -2.78c0,-0.49 -0.15,-0.87 -0.45,-1.15 -0.3,-0.28 -0.76,-0.41 -1.38,-0.41 -0.42,0 -0.84,0.06 -1.25,0.2 -0.41,0.13 -0.76,0.31 -1.04,0.53l-0.83 -1.61c0.43,-0.3 0.96,-0.54 1.57,-0.71 0.61,-0.16 1.23,-0.25 1.86,-0.25 1.21,0 2.15,0.29 2.82,0.86 0.67,0.57 1.01,1.46 1.01,2.68l0 4.53 -2.16 0zm-2.42 0.12c-0.62,0 -1.16,-0.1 -1.6,-0.32 -0.44,-0.21 -0.78,-0.5 -1.02,-0.86 -0.24,-0.37 -0.35,-0.77 -0.35,-1.23 0,-0.47 0.11,-0.88 0.34,-1.24 0.23,-0.35 0.6,-0.63 1.11,-0.83 0.5,-0.21 1.15,-0.31 1.96,-0.31l2.11 0 0 1.35 -1.86 0c-0.54,0 -0.91,0.09 -1.11,0.26 -0.21,0.18 -0.31,0.4 -0.31,0.67 0,0.29 0.12,0.53 0.35,0.7 0.23,0.17 0.55,0.26 0.95,0.26 0.39,0 0.73,-0.09 1.04,-0.27 0.3,-0.19 0.53,-0.45 0.66,-0.81l0.36 1.07c-0.17,0.51 -0.47,0.9 -0.92,1.16 -0.44,0.27 -1.01,0.4 -1.71,0.4z"/>
   <path id="_10" class="fil0" d="M147.99 22.24l0 -7.95 2.2 0 0 2.25 -0.31 -0.65c0.24,-0.56 0.62,-0.99 1.14,-1.28 0.52,-0.29 1.16,-0.44 1.9,-0.44l0 2.13c-0.09,-0.01 -0.18,-0.02 -0.26,-0.02 -0.08,-0.01 -0.16,-0.01 -0.25,-0.01 -0.63,0 -1.14,0.18 -1.53,0.54 -0.39,0.36 -0.59,0.92 -0.59,1.68l0 3.75 -2.3 0z"/>
   <path id="_11" class="fil0" d="M157.52 22.36c-0.74,0 -1.42,-0.17 -2.02,-0.51 -0.6,-0.34 -1.08,-0.81 -1.43,-1.42 -0.35,-0.62 -0.52,-1.34 -0.52,-2.16 0,-0.84 0.17,-1.56 0.52,-2.18 0.35,-0.61 0.83,-1.08 1.43,-1.41 0.6,-0.34 1.28,-0.51 2.02,-0.51 0.67,0 1.26,0.15 1.76,0.45 0.51,0.29 0.89,0.74 1.17,1.34 0.28,0.6 0.41,1.37 0.41,2.31 0,0.92 -0.13,1.69 -0.39,2.3 -0.27,0.6 -0.65,1.05 -1.15,1.35 -0.5,0.29 -1.1,0.44 -1.8,0.44zm0.4 -1.89c0.38,0 0.72,-0.09 1.02,-0.27 0.31,-0.17 0.55,-0.43 0.73,-0.76 0.19,-0.33 0.28,-0.72 0.28,-1.17 0,-0.47 -0.09,-0.86 -0.28,-1.19 -0.18,-0.32 -0.42,-0.57 -0.73,-0.75 -0.3,-0.18 -0.64,-0.26 -1.02,-0.26 -0.38,0 -0.73,0.08 -1.03,0.26 -0.31,0.18 -0.55,0.43 -0.73,0.75 -0.19,0.33 -0.28,0.72 -0.28,1.19 0,0.45 0.09,0.84 0.28,1.17 0.18,0.33 0.42,0.59 0.73,0.76 0.3,0.18 0.65,0.27 1.03,0.27zm2.09 1.77l0 -1.62 0.04 -2.37 -0.15 -2.35 0 -4.62 2.31 0 0 10.96 -2.2 0z"/>
   <path id="_12" class="fil0" d="M164.25 22.24l-0.03 -7.95 2.29 0.02 0.02 7.93 -2.28 0zm1.12 -9.06c-0.42,0 -0.76,-0.12 -1.03,-0.37 -0.27,-0.24 -0.4,-0.55 -0.4,-0.91 0,-0.37 0.13,-0.67 0.4,-0.92 0.27,-0.25 0.61,-0.37 1.03,-0.37 0.43,0 0.77,0.12 1.04,0.35 0.27,0.23 0.4,0.53 0.4,0.89 0,0.39 -0.13,0.7 -0.39,0.96 -0.26,0.25 -0.61,0.37 -1.05,0.37z"/>
   <path id="_13" class="fil0" d="M172.79 22.42c-0.7,0 -1.35,-0.13 -1.93,-0.39 -0.59,-0.26 -1.07,-0.63 -1.44,-1.12l1.33 -1.59c0.28,0.37 0.58,0.65 0.9,0.85 0.31,0.19 0.65,0.29 1.02,0.29 0.97,0 1.46,-0.58 1.46,-1.72l0 -4.92 -3.64 0 0 -1.92 6.02 0 0 6.71c0,1.28 -0.31,2.23 -0.95,2.86 -0.63,0.64 -1.55,0.95 -2.77,0.95z"/>
   <path id="_14" class="fil0" d="M183.48 22.24l0 -1.55 -0.15 -0.34 0 -2.78c0,-0.49 -0.15,-0.87 -0.45,-1.15 -0.3,-0.28 -0.76,-0.41 -1.39,-0.41 -0.42,0 -0.84,0.06 -1.24,0.2 -0.41,0.13 -0.76,0.31 -1.05,0.53l-0.82 -1.61c0.43,-0.3 0.95,-0.54 1.56,-0.71 0.61,-0.16 1.23,-0.25 1.87,-0.25 1.21,0 2.15,0.29 2.82,0.86 0.67,0.57 1,1.46 1,2.68l0 4.53 -2.15 0zm-2.43 0.12c-0.62,0 -1.15,-0.1 -1.6,-0.32 -0.44,-0.21 -0.78,-0.5 -1.02,-0.86 -0.23,-0.37 -0.35,-0.77 -0.35,-1.23 0,-0.47 0.12,-0.88 0.35,-1.24 0.23,-0.35 0.6,-0.63 1.1,-0.83 0.5,-0.21 1.16,-0.31 1.96,-0.31l2.12 0 0 1.35 -1.86 0c-0.55,0 -0.92,0.09 -1.12,0.26 -0.2,0.18 -0.3,0.4 -0.3,0.67 0,0.29 0.11,0.53 0.34,0.7 0.24,0.17 0.55,0.26 0.96,0.26 0.38,0 0.73,-0.09 1.03,-0.27 0.31,-0.19 0.53,-0.45 0.67,-0.81l0.35 1.07c-0.17,0.51 -0.47,0.9 -0.91,1.16 -0.45,0.27 -1.02,0.4 -1.72,0.4z"/>
   <path id="_15" class="fil0" d="M188.46 25.23c-0.41,0 -0.82,-0.06 -1.23,-0.19 -0.4,-0.13 -0.73,-0.31 -0.99,-0.53l0.84 -1.64c0.18,0.15 0.39,0.27 0.62,0.36 0.23,0.09 0.46,0.14 0.69,0.14 0.32,0 0.58,-0.08 0.77,-0.23 0.19,-0.15 0.37,-0.41 0.53,-0.76l0.41 -0.98 0.18 -0.25 2.85 -6.86 2.22 0 -3.59 8.44c-0.26,0.64 -0.55,1.14 -0.88,1.51 -0.33,0.36 -0.7,0.62 -1.1,0.77 -0.4,0.15 -0.84,0.22 -1.32,0.22zm1.36 -2.68l-3.55 -8.26 2.38 0 2.75 6.65 -1.58 1.61z"/>
   <path id="_16" class="fil0" d="M200.79 22.24l0 -1.55 -0.15 -0.34 0 -2.78c0,-0.49 -0.15,-0.87 -0.45,-1.15 -0.3,-0.28 -0.76,-0.41 -1.38,-0.41 -0.42,0 -0.84,0.06 -1.25,0.2 -0.41,0.13 -0.76,0.31 -1.04,0.53l-0.83 -1.61c0.43,-0.3 0.96,-0.54 1.57,-0.71 0.61,-0.16 1.23,-0.25 1.86,-0.25 1.21,0 2.15,0.29 2.82,0.86 0.67,0.57 1.01,1.46 1.01,2.68l0 4.53 -2.16 0zm-2.42 0.12c-0.62,0 -1.16,-0.1 -1.6,-0.32 -0.44,-0.21 -0.78,-0.5 -1.02,-0.86 -0.24,-0.37 -0.35,-0.77 -0.35,-1.23 0,-0.47 0.11,-0.88 0.34,-1.24 0.23,-0.35 0.6,-0.63 1.1,-0.83 0.51,-0.21 1.16,-0.31 1.97,-0.31l2.11 0 0 1.35 -1.86 0c-0.54,0 -0.91,0.09 -1.11,0.26 -0.21,0.18 -0.31,0.4 -0.31,0.67 0,0.29 0.12,0.53 0.35,0.7 0.23,0.17 0.55,0.26 0.95,0.26 0.39,0 0.73,-0.09 1.04,-0.27 0.3,-0.19 0.52,-0.45 0.66,-0.81l0.36 1.07c-0.17,0.51 -0.48,0.9 -0.92,1.16 -0.44,0.27 -1.01,0.4 -1.71,0.4z"/>
   <path id="_17" class="fil0" d="M205.88 22.24l4.61 -10.34 2.37 0 4.63 10.34 -2.52 0 -3.78 -9.13 0.94 0 -3.8 9.13 -2.45 0zm2.31 -2.21l0.63 -1.82 5.32 0 0.65 1.82 -6.6 0z"/>
   <path id="_18" class="fil0" d="M222.99 22.36c-0.7,0 -1.3,-0.15 -1.81,-0.44 -0.5,-0.3 -0.88,-0.75 -1.15,-1.35 -0.27,-0.61 -0.4,-1.38 -0.4,-2.3 0,-0.94 0.14,-1.71 0.42,-2.31 0.28,-0.6 0.67,-1.05 1.18,-1.34 0.5,-0.3 1.09,-0.45 1.76,-0.45 0.74,0 1.42,0.17 2.01,0.51 0.6,0.33 1.07,0.8 1.42,1.41 0.35,0.62 0.53,1.34 0.53,2.18 0,0.82 -0.18,1.54 -0.53,2.16 -0.35,0.61 -0.82,1.08 -1.42,1.42 -0.59,0.34 -1.27,0.51 -2.01,0.51zm-4.71 -0.12l0 -10.96 2.31 0 0 4.62 -0.15 2.35 0.05 2.37 0 1.62 -2.21 0zm4.31 -1.77c0.38,0 0.72,-0.09 1.02,-0.27 0.3,-0.17 0.55,-0.43 0.73,-0.76 0.18,-0.33 0.27,-0.72 0.27,-1.17 0,-0.47 -0.09,-0.86 -0.27,-1.19 -0.18,-0.32 -0.43,-0.57 -0.73,-0.75 -0.3,-0.18 -0.64,-0.26 -1.02,-0.26 -0.39,0 -0.73,0.08 -1.04,0.26 -0.3,0.18 -0.54,0.43 -0.72,0.75 -0.18,0.33 -0.27,0.72 -0.27,1.19 0,0.45 0.09,0.84 0.27,1.17 0.18,0.33 0.42,0.59 0.72,0.76 0.31,0.18 0.65,0.27 1.04,0.27z"/>
   <path id="_19" class="fil0" d="M233.11 22.24l0 -1.55 -0.14 -0.34 0 -2.78c0,-0.49 -0.15,-0.87 -0.46,-1.15 -0.3,-0.28 -0.76,-0.41 -1.38,-0.41 -0.42,0 -0.84,0.06 -1.25,0.2 -0.41,0.13 -0.75,0.31 -1.04,0.53l-0.83 -1.61c0.44,-0.3 0.96,-0.54 1.57,-0.71 0.61,-0.16 1.23,-0.25 1.86,-0.25 1.22,0 2.16,0.29 2.83,0.86 0.67,0.57 1,1.46 1,2.68l0 4.53 -2.16 0zm-2.42 0.12c-0.62,0 -1.15,-0.1 -1.6,-0.32 -0.44,-0.21 -0.78,-0.5 -1.02,-0.86 -0.23,-0.37 -0.35,-0.77 -0.35,-1.23 0,-0.47 0.11,-0.88 0.35,-1.24 0.23,-0.35 0.59,-0.63 1.1,-0.83 0.5,-0.21 1.16,-0.31 1.96,-0.31l2.12 0 0 1.35 -1.87 0c-0.54,0 -0.91,0.09 -1.11,0.26 -0.2,0.18 -0.31,0.4 -0.31,0.67 0,0.29 0.12,0.53 0.35,0.7 0.23,0.17 0.55,0.26 0.96,0.26 0.38,0 0.73,-0.09 1.03,-0.27 0.31,-0.19 0.53,-0.45 0.67,-0.81l0.35 1.07c-0.17,0.51 -0.47,0.9 -0.92,1.16 -0.44,0.27 -1.01,0.4 -1.71,0.4z"/>
   <path id="_20" class="fil0" d="M240.71 22.36c-0.74,0 -1.42,-0.17 -2.02,-0.51 -0.6,-0.34 -1.08,-0.81 -1.43,-1.42 -0.35,-0.62 -0.52,-1.34 -0.52,-2.16 0,-0.84 0.17,-1.56 0.52,-2.18 0.35,-0.61 0.83,-1.08 1.43,-1.41 0.6,-0.34 1.28,-0.51 2.02,-0.51 0.67,0 1.26,0.15 1.76,0.45 0.51,0.29 0.89,0.74 1.17,1.34 0.28,0.6 0.41,1.37 0.41,2.31 0,0.92 -0.13,1.69 -0.39,2.3 -0.27,0.6 -0.65,1.05 -1.15,1.35 -0.5,0.29 -1.1,0.44 -1.8,0.44zm0.4 -1.89c0.38,0 0.72,-0.09 1.02,-0.27 0.31,-0.17 0.55,-0.43 0.73,-0.76 0.19,-0.33 0.28,-0.72 0.28,-1.17 0,-0.47 -0.09,-0.86 -0.28,-1.19 -0.18,-0.32 -0.42,-0.57 -0.73,-0.75 -0.3,-0.18 -0.64,-0.26 -1.02,-0.26 -0.38,0 -0.73,0.08 -1.03,0.26 -0.31,0.18 -0.55,0.43 -0.73,0.75 -0.19,0.33 -0.28,0.72 -0.28,1.19 0,0.45 0.09,0.84 0.28,1.17 0.18,0.33 0.42,0.59 0.73,0.76 0.3,0.18 0.65,0.27 1.03,0.27zm2.09 1.77l0 -1.62 0.04 -2.37 -0.15 -2.35 0 -4.62 2.31 0 0 10.96 -2.2 0z"/>
   <path id="_21" class="fil0" d="M247.44 22.24l-0.03 -7.95 2.29 0.02 0.02 7.93 -2.28 0zm1.12 -9.06c-0.42,0 -0.76,-0.12 -1.03,-0.37 -0.27,-0.24 -0.4,-0.55 -0.4,-0.91 0,-0.37 0.13,-0.67 0.4,-0.92 0.27,-0.25 0.61,-0.37 1.03,-0.37 0.43,0 0.77,0.12 1.04,0.35 0.27,0.23 0.4,0.53 0.4,0.89 0,0.39 -0.13,0.7 -0.39,0.96 -0.26,0.25 -0.61,0.37 -1.05,0.37z"/>
   <path class="fil1" d="M66.5 35.96c-0.39,0 -0.76,-0.07 -1.11,-0.21 -0.34,-0.13 -0.65,-0.33 -0.9,-0.57 -0.26,-0.25 -0.46,-0.54 -0.61,-0.87 -0.14,-0.33 -0.21,-0.68 -0.21,-1.07 0,-0.38 0.07,-0.73 0.21,-1.06 0.15,-0.32 0.35,-0.61 0.61,-0.86 0.25,-0.24 0.55,-0.44 0.9,-0.58 0.34,-0.14 0.71,-0.21 1.11,-0.21 0.38,0 0.71,0.05 0.98,0.14 0.27,0.09 0.54,0.24 0.82,0.45 0.04,0.02 0.07,0.05 0.09,0.08 0.02,0.03 0.04,0.06 0.04,0.09 0.01,0.03 0.01,0.06 0.01,0.1 0,0.09 -0.03,0.16 -0.1,0.22 -0.06,0.06 -0.14,0.09 -0.24,0.1 -0.09,0 -0.18,-0.03 -0.27,-0.09 -0.18,-0.15 -0.37,-0.26 -0.56,-0.33 -0.19,-0.08 -0.45,-0.12 -0.77,-0.12 -0.28,0 -0.56,0.05 -0.81,0.16 -0.26,0.11 -0.48,0.26 -0.67,0.45 -0.2,0.19 -0.35,0.41 -0.45,0.66 -0.11,0.25 -0.17,0.52 -0.17,0.8 0,0.29 0.06,0.56 0.17,0.81 0.1,0.25 0.25,0.47 0.45,0.66 0.19,0.19 0.41,0.34 0.67,0.45 0.25,0.1 0.53,0.16 0.81,0.16 0.25,0 0.49,-0.04 0.71,-0.12 0.23,-0.08 0.44,-0.19 0.65,-0.33 0.08,-0.06 0.17,-0.09 0.26,-0.08 0.08,0.01 0.15,0.04 0.21,0.1 0.06,0.05 0.09,0.13 0.09,0.23 0,0.05 -0.01,0.09 -0.02,0.13 -0.02,0.04 -0.05,0.08 -0.1,0.12 -0.26,0.2 -0.54,0.35 -0.84,0.44 -0.3,0.1 -0.62,0.15 -0.96,0.15zm1.92 -0.84l-0.73 -0.14 0 -1.21 -1.02 0c-0.1,0 -0.19,-0.03 -0.27,-0.09 -0.07,-0.06 -0.11,-0.13 -0.11,-0.22 0,-0.09 0.04,-0.16 0.11,-0.22 0.08,-0.06 0.17,-0.09 0.27,-0.09l1.38 0c0.11,0 0.2,0.03 0.27,0.1 0.07,0.06 0.1,0.15 0.1,0.25l0 1.62z"/>
   <path id="_1_0" class="fil1" d="M70.35 35.89c-0.11,0 -0.2,-0.03 -0.28,-0.1 -0.07,-0.07 -0.11,-0.15 -0.11,-0.25l0 -4.59c0,-0.1 0.04,-0.18 0.11,-0.25 0.08,-0.06 0.17,-0.1 0.28,-0.1l3.32 0c0.11,0 0.2,0.03 0.27,0.09 0.07,0.06 0.1,0.15 0.1,0.24 0,0.1 -0.03,0.18 -0.1,0.23 -0.07,0.06 -0.16,0.09 -0.27,0.09l-2.94 0 0 1.65 2.11 0c0.11,0 0.2,0.03 0.27,0.09 0.07,0.06 0.1,0.14 0.1,0.23 0,0.1 -0.03,0.18 -0.1,0.24 -0.07,0.06 -0.16,0.09 -0.27,0.09l-2.11 0 0 1.69 2.94 0c0.11,0 0.2,0.03 0.27,0.09 0.07,0.06 0.1,0.13 0.1,0.23 0,0.1 -0.03,0.18 -0.1,0.24 -0.07,0.06 -0.16,0.09 -0.27,0.09l-3.32 0z"/>
   <path id="_2_1" class="fil1" d="M75.8 35.89c-0.1,0 -0.19,-0.03 -0.26,-0.1 -0.07,-0.07 -0.11,-0.15 -0.11,-0.25l0 -4.59c0,-0.1 0.04,-0.18 0.11,-0.25 0.07,-0.06 0.16,-0.1 0.26,-0.1 0.12,0 0.22,0.04 0.3,0.13l3.2 3.93 0 -3.71c0,-0.1 0.04,-0.18 0.11,-0.25 0.07,-0.06 0.17,-0.1 0.27,-0.1 0.12,0 0.21,0.04 0.27,0.1 0.07,0.07 0.11,0.15 0.11,0.25l0 4.59c0,0.1 -0.04,0.18 -0.11,0.25 -0.06,0.07 -0.15,0.1 -0.27,0.1 -0.05,0 -0.1,-0.01 -0.15,-0.03 -0.06,-0.02 -0.11,-0.05 -0.14,-0.09l-3.2 -3.93 0 3.7c0,0.1 -0.04,0.18 -0.11,0.25 -0.07,0.07 -0.16,0.1 -0.28,0.1z"/>
   <path id="_3_2" class="fil1" d="M82.23 35.89c-0.11,0 -0.2,-0.03 -0.27,-0.1 -0.07,-0.07 -0.11,-0.15 -0.11,-0.25l0 -4.59c0,-0.1 0.04,-0.18 0.11,-0.25 0.07,-0.06 0.16,-0.1 0.27,-0.1l3.32 0c0.12,0 0.21,0.03 0.28,0.09 0.06,0.06 0.1,0.15 0.1,0.24 0,0.1 -0.04,0.18 -0.1,0.23 -0.07,0.06 -0.16,0.09 -0.28,0.09l-2.94 0 0 1.65 2.11 0c0.12,0 0.21,0.03 0.27,0.09 0.07,0.06 0.11,0.14 0.11,0.23 0,0.1 -0.04,0.18 -0.11,0.24 -0.06,0.06 -0.15,0.09 -0.27,0.09l-2.11 0 0 1.69 2.94 0c0.12,0 0.21,0.03 0.28,0.09 0.06,0.06 0.1,0.13 0.1,0.23 0,0.1 -0.04,0.18 -0.1,0.24 -0.07,0.06 -0.16,0.09 -0.28,0.09l-3.32 0z"/>
   <path id="_4_3" class="fil1" d="M87.7 35.89c-0.11,0 -0.2,-0.03 -0.27,-0.1 -0.08,-0.07 -0.11,-0.15 -0.11,-0.25l0 -4.59c0,-0.1 0.03,-0.18 0.11,-0.25 0.07,-0.06 0.16,-0.1 0.27,-0.1l1.32 0c0.37,0 0.69,0.07 0.98,0.22 0.28,0.14 0.5,0.33 0.66,0.58 0.16,0.25 0.24,0.54 0.24,0.87 0,0.3 -0.08,0.58 -0.24,0.82 -0.16,0.24 -0.38,0.43 -0.66,0.56 -0.29,0.14 -0.61,0.2 -0.98,0.2l-0.94 0 0 1.69c0,0.1 -0.04,0.18 -0.11,0.25 -0.07,0.07 -0.16,0.1 -0.27,0.1zm3.05 0c-0.07,0 -0.13,-0.01 -0.19,-0.04 -0.06,-0.03 -0.1,-0.07 -0.14,-0.13l-1.33 -1.96 0.75 -0.2 1.2 1.79c0.09,0.13 0.1,0.25 0.04,0.37 -0.07,0.11 -0.18,0.17 -0.33,0.17zm-2.67 -2.69l0.94 0c0.23,0 0.43,-0.04 0.6,-0.12 0.17,-0.08 0.3,-0.19 0.4,-0.33 0.1,-0.14 0.15,-0.3 0.15,-0.48 0,-0.2 -0.05,-0.38 -0.15,-0.53 -0.1,-0.15 -0.23,-0.27 -0.4,-0.36 -0.17,-0.08 -0.37,-0.13 -0.6,-0.13l-0.94 0 0 1.95z"/>
   <path id="_5_4" class="fil1" d="M92.05 35.89c-0.13,0 -0.24,-0.05 -0.31,-0.16 -0.07,-0.11 -0.08,-0.22 -0.02,-0.35l2.06 -4.54c0.08,-0.16 0.19,-0.24 0.36,-0.24 0.18,0 0.3,0.08 0.36,0.24l2.07 4.56c0.06,0.12 0.05,0.24 -0.02,0.34 -0.07,0.1 -0.18,0.15 -0.32,0.15 -0.08,0 -0.15,-0.02 -0.21,-0.06 -0.07,-0.03 -0.12,-0.09 -0.14,-0.16l-1.83 -4.17 0.21 0 -1.85 4.17c-0.04,0.08 -0.09,0.13 -0.15,0.17 -0.07,0.03 -0.14,0.05 -0.21,0.05zm0.39 -1.16l0.3 -0.59 2.88 0 0.29 0.59 -3.47 0z"/>
   <path id="_6_5" class="fil1" d="M98.14 35.89c-0.1,0 -0.19,-0.03 -0.26,-0.1 -0.07,-0.07 -0.11,-0.15 -0.11,-0.25l0 -4.59c0,-0.09 0.04,-0.18 0.11,-0.25 0.07,-0.06 0.16,-0.1 0.26,-0.1 0.11,0 0.2,0.04 0.28,0.1 0.07,0.07 0.11,0.16 0.11,0.25l0 4.24 2.66 0c0.1,0 0.19,0.03 0.27,0.1 0.07,0.07 0.11,0.15 0.11,0.25 0,0.1 -0.04,0.18 -0.11,0.25 -0.08,0.07 -0.17,0.1 -0.27,0.1l-3.05 0z"/>
   <path id="_7_6" class="fil1" d="M106.58 35.96c-0.31,0 -0.61,-0.05 -0.9,-0.14 -0.28,-0.09 -0.53,-0.21 -0.74,-0.38 -0.21,-0.16 -0.36,-0.35 -0.46,-0.56 -0.05,-0.09 -0.05,-0.18 0,-0.26 0.05,-0.08 0.14,-0.14 0.26,-0.16 0.09,-0.02 0.18,0 0.26,0.04 0.09,0.04 0.15,0.11 0.2,0.19 0.06,0.12 0.15,0.22 0.29,0.31 0.13,0.1 0.3,0.18 0.49,0.23 0.19,0.06 0.39,0.09 0.6,0.09 0.23,0 0.45,-0.03 0.65,-0.1 0.2,-0.07 0.36,-0.16 0.48,-0.29 0.12,-0.13 0.18,-0.29 0.18,-0.48 0,-0.24 -0.1,-0.46 -0.3,-0.64 -0.2,-0.19 -0.54,-0.31 -1,-0.36 -0.61,-0.05 -1.09,-0.21 -1.44,-0.49 -0.34,-0.28 -0.52,-0.62 -0.52,-1.02 0,-0.3 0.09,-0.55 0.27,-0.76 0.18,-0.21 0.43,-0.37 0.74,-0.48 0.31,-0.1 0.66,-0.16 1.04,-0.16 0.3,0 0.56,0.04 0.78,0.12 0.23,0.07 0.42,0.18 0.59,0.31 0.17,0.14 0.31,0.3 0.43,0.49 0.07,0.1 0.1,0.19 0.09,0.28 -0.02,0.08 -0.06,0.15 -0.15,0.2 -0.09,0.06 -0.19,0.07 -0.3,0.04 -0.11,-0.03 -0.19,-0.09 -0.24,-0.18 -0.08,-0.13 -0.17,-0.24 -0.29,-0.33 -0.11,-0.09 -0.24,-0.16 -0.39,-0.21 -0.16,-0.06 -0.33,-0.08 -0.54,-0.08 -0.36,-0.01 -0.67,0.06 -0.91,0.18 -0.25,0.13 -0.37,0.33 -0.37,0.6 0,0.13 0.04,0.26 0.12,0.39 0.07,0.12 0.21,0.23 0.41,0.32 0.21,0.09 0.5,0.15 0.88,0.19 0.59,0.05 1.04,0.21 1.37,0.49 0.32,0.27 0.48,0.63 0.48,1.08 0,0.26 -0.05,0.48 -0.17,0.67 -0.11,0.19 -0.27,0.35 -0.46,0.48 -0.2,0.12 -0.42,0.22 -0.66,0.28 -0.25,0.07 -0.51,0.1 -0.77,0.1z"/>
   <path id="_8_7" class="fil1" d="M112.54 36c-0.47,0 -0.89,-0.08 -1.25,-0.24 -0.37,-0.16 -0.65,-0.38 -0.85,-0.66 -0.2,-0.29 -0.31,-0.61 -0.31,-0.98l0 -3.17c0,-0.1 0.04,-0.18 0.11,-0.25 0.08,-0.06 0.17,-0.1 0.28,-0.1 0.1,0 0.19,0.04 0.27,0.1 0.07,0.07 0.11,0.15 0.11,0.25l0 3.17c0,0.25 0.07,0.46 0.21,0.65 0.14,0.18 0.33,0.33 0.58,0.43 0.25,0.11 0.53,0.16 0.85,0.16 0.3,0 0.57,-0.05 0.81,-0.15 0.24,-0.11 0.42,-0.25 0.56,-0.44 0.14,-0.19 0.21,-0.4 0.21,-0.65l0 -3.17c0,-0.1 0.03,-0.18 0.11,-0.25 0.07,-0.06 0.16,-0.1 0.26,-0.1 0.12,0 0.21,0.04 0.28,0.1 0.07,0.07 0.1,0.15 0.1,0.25l0 3.17c0,0.37 -0.1,0.69 -0.29,0.98 -0.2,0.28 -0.48,0.5 -0.83,0.66 -0.35,0.16 -0.76,0.24 -1.21,0.24z"/>
   <path id="_9_8" class="fil1" d="M117.05 35.89c-0.11,0 -0.2,-0.03 -0.28,-0.1 -0.07,-0.07 -0.11,-0.15 -0.11,-0.25l0 -4.59c0,-0.1 0.04,-0.18 0.11,-0.25 0.08,-0.06 0.17,-0.1 0.28,-0.1l1.47 0c0.36,0 0.69,0.08 0.97,0.23 0.28,0.14 0.5,0.35 0.67,0.61 0.16,0.26 0.24,0.57 0.24,0.92 0,0.33 -0.08,0.62 -0.24,0.88 -0.16,0.25 -0.38,0.46 -0.67,0.6 -0.28,0.14 -0.61,0.22 -0.97,0.22l-1.09 0 0 1.48c0,0.1 -0.04,0.18 -0.11,0.25 -0.08,0.07 -0.16,0.1 -0.27,0.1zm0.38 -2.48l1.09 0c0.22,0 0.42,-0.05 0.59,-0.14 0.17,-0.09 0.31,-0.21 0.41,-0.37 0.09,-0.16 0.14,-0.34 0.14,-0.54 0,-0.23 -0.04,-0.42 -0.14,-0.58 -0.1,-0.17 -0.23,-0.3 -0.4,-0.39 -0.18,-0.09 -0.38,-0.14 -0.6,-0.14l-1.09 0 0 2.16z"/>
   <path id="_10_9" class="fil1" d="M121.95 35.89c-0.11,0 -0.2,-0.03 -0.27,-0.1 -0.08,-0.07 -0.12,-0.15 -0.12,-0.25l0 -4.59c0,-0.1 0.04,-0.18 0.12,-0.25 0.07,-0.06 0.16,-0.1 0.27,-0.1l1.47 0c0.36,0 0.69,0.08 0.97,0.23 0.28,0.14 0.5,0.35 0.66,0.61 0.17,0.26 0.25,0.57 0.25,0.92 0,0.33 -0.08,0.62 -0.24,0.88 -0.16,0.25 -0.38,0.46 -0.67,0.6 -0.28,0.14 -0.61,0.22 -0.97,0.22l-1.09 0 0 1.48c0,0.1 -0.04,0.18 -0.11,0.25 -0.07,0.07 -0.17,0.1 -0.27,0.1zm0.38 -2.48l1.09 0c0.22,0 0.42,-0.05 0.59,-0.14 0.17,-0.09 0.31,-0.21 0.41,-0.37 0.09,-0.16 0.14,-0.34 0.14,-0.54 0,-0.23 -0.05,-0.42 -0.14,-0.58 -0.1,-0.17 -0.23,-0.3 -0.41,-0.39 -0.17,-0.09 -0.37,-0.14 -0.59,-0.14l-1.09 0 0 2.16z"/>
   <path id="_11_10" class="fil1" d="M126.84 35.89c-0.11,0 -0.2,-0.03 -0.27,-0.1 -0.07,-0.07 -0.11,-0.15 -0.11,-0.25l0 -4.59c0,-0.09 0.04,-0.18 0.11,-0.25 0.08,-0.06 0.17,-0.1 0.27,-0.1 0.11,0 0.2,0.04 0.27,0.1 0.07,0.07 0.11,0.16 0.11,0.25l0 4.24 2.66 0c0.11,0 0.2,0.03 0.27,0.1 0.08,0.07 0.11,0.15 0.11,0.25 0,0.1 -0.03,0.18 -0.11,0.25 -0.07,0.07 -0.16,0.1 -0.27,0.1l-3.04 0z"/>
   <path id="_12_11" class="fil1" d="M131.89 35.89c-0.11,0 -0.2,-0.03 -0.28,-0.1 -0.07,-0.07 -0.11,-0.15 -0.11,-0.25l0 -4.59c0,-0.1 0.04,-0.18 0.11,-0.25 0.08,-0.06 0.17,-0.1 0.28,-0.1 0.11,0 0.2,0.04 0.27,0.1 0.07,0.07 0.11,0.15 0.11,0.25l0 4.59c0,0.1 -0.04,0.18 -0.11,0.25 -0.07,0.07 -0.16,0.1 -0.27,0.1z"/>
   <path id="_13_12" class="fil1" d="M134.44 35.89c-0.11,0 -0.2,-0.03 -0.27,-0.1 -0.07,-0.07 -0.11,-0.15 -0.11,-0.25l0 -4.59c0,-0.1 0.04,-0.18 0.11,-0.25 0.07,-0.06 0.16,-0.1 0.27,-0.1l3.32 0c0.11,0 0.21,0.03 0.27,0.09 0.07,0.06 0.11,0.15 0.11,0.24 0,0.1 -0.04,0.18 -0.11,0.23 -0.06,0.06 -0.16,0.09 -0.27,0.09l-2.94 0 0 1.65 2.11 0c0.11,0 0.21,0.03 0.27,0.09 0.07,0.06 0.11,0.14 0.11,0.23 0,0.1 -0.04,0.18 -0.11,0.24 -0.06,0.06 -0.16,0.09 -0.27,0.09l-2.11 0 0 1.69 2.94 0c0.11,0 0.21,0.03 0.27,0.09 0.07,0.06 0.11,0.13 0.11,0.23 0,0.1 -0.04,0.18 -0.11,0.24 -0.06,0.06 -0.16,0.09 -0.27,0.09l-3.32 0z"/>
   <path id="_14_13" class="fil1" d="M139.91 35.89c-0.11,0 -0.2,-0.03 -0.27,-0.1 -0.08,-0.07 -0.11,-0.15 -0.11,-0.25l0 -4.59c0,-0.1 0.03,-0.18 0.11,-0.25 0.07,-0.06 0.16,-0.1 0.27,-0.1l1.32 0c0.37,0 0.69,0.07 0.98,0.22 0.28,0.14 0.5,0.33 0.66,0.58 0.16,0.25 0.24,0.54 0.24,0.87 0,0.3 -0.08,0.58 -0.24,0.82 -0.16,0.24 -0.38,0.43 -0.66,0.56 -0.29,0.14 -0.61,0.2 -0.98,0.2l-0.94 0 0 1.69c0,0.1 -0.04,0.18 -0.11,0.25 -0.07,0.07 -0.16,0.1 -0.27,0.1zm3.05 0c-0.07,0 -0.13,-0.01 -0.19,-0.04 -0.06,-0.03 -0.11,-0.07 -0.14,-0.13l-1.33 -1.96 0.75 -0.2 1.2 1.79c0.09,0.13 0.1,0.25 0.04,0.37 -0.07,0.11 -0.18,0.17 -0.33,0.17zm-2.67 -2.69l0.94 0c0.22,0 0.42,-0.04 0.59,-0.12 0.18,-0.08 0.31,-0.19 0.41,-0.33 0.1,-0.14 0.15,-0.3 0.15,-0.48 0,-0.2 -0.05,-0.38 -0.15,-0.53 -0.1,-0.15 -0.23,-0.27 -0.41,-0.36 -0.17,-0.08 -0.37,-0.13 -0.59,-0.13l-0.94 0 0 1.95z"/>
   <path id="_15_14" class="fil1" d="M149.01 35.96c-0.4,0 -0.77,-0.07 -1.11,-0.21 -0.35,-0.13 -0.65,-0.33 -0.91,-0.57 -0.25,-0.25 -0.45,-0.54 -0.6,-0.87 -0.14,-0.33 -0.22,-0.68 -0.22,-1.07 0,-0.38 0.08,-0.73 0.22,-1.06 0.15,-0.32 0.35,-0.61 0.6,-0.86 0.26,-0.24 0.56,-0.44 0.9,-0.58 0.35,-0.14 0.72,-0.21 1.12,-0.21 0.38,0 0.7,0.05 0.97,0.14 0.28,0.09 0.55,0.24 0.82,0.45 0.04,0.02 0.07,0.05 0.1,0.08 0.02,0.03 0.03,0.06 0.04,0.09 0.01,0.03 0.01,0.06 0.01,0.1 0,0.09 -0.03,0.16 -0.1,0.22 -0.07,0.05 -0.14,0.09 -0.24,0.09 -0.09,0.01 -0.18,-0.02 -0.27,-0.08 -0.18,-0.15 -0.37,-0.26 -0.56,-0.33 -0.2,-0.08 -0.45,-0.12 -0.77,-0.12 -0.29,0 -0.56,0.05 -0.81,0.16 -0.26,0.11 -0.48,0.26 -0.68,0.45 -0.19,0.19 -0.34,0.41 -0.45,0.66 -0.11,0.25 -0.16,0.52 -0.16,0.8 0,0.29 0.05,0.56 0.16,0.81 0.11,0.25 0.26,0.47 0.45,0.66 0.2,0.19 0.42,0.34 0.68,0.45 0.25,0.1 0.52,0.16 0.81,0.16 0.25,0 0.49,-0.04 0.71,-0.12 0.22,-0.08 0.44,-0.19 0.64,-0.33 0.09,-0.06 0.18,-0.09 0.26,-0.08 0.09,0.01 0.16,0.04 0.22,0.1 0.06,0.05 0.09,0.13 0.09,0.23 0,0.05 -0.01,0.09 -0.03,0.13 -0.02,0.04 -0.05,0.08 -0.09,0.12 -0.26,0.19 -0.55,0.34 -0.85,0.44 -0.3,0.1 -0.62,0.15 -0.95,0.15z"/>
   <path id="_16_15" class="fil1" d="M155.12 35.96c-0.43,0 -0.82,-0.07 -1.18,-0.2 -0.36,-0.13 -0.66,-0.32 -0.92,-0.56 -0.26,-0.24 -0.46,-0.53 -0.6,-0.86 -0.14,-0.33 -0.21,-0.7 -0.21,-1.1 0,-0.39 0.07,-0.76 0.21,-1.09 0.14,-0.33 0.34,-0.61 0.6,-0.85 0.26,-0.25 0.56,-0.43 0.92,-0.57 0.36,-0.13 0.75,-0.2 1.18,-0.2 0.43,0 0.83,0.07 1.18,0.2 0.36,0.14 0.66,0.32 0.92,0.57 0.26,0.24 0.46,0.52 0.61,0.85 0.14,0.33 0.21,0.7 0.21,1.09 0,0.4 -0.07,0.77 -0.21,1.1 -0.15,0.33 -0.35,0.62 -0.61,0.86 -0.26,0.24 -0.56,0.43 -0.92,0.56 -0.35,0.13 -0.75,0.2 -1.18,0.2zm0 -0.64c0.32,0 0.61,-0.05 0.88,-0.16 0.27,-0.1 0.5,-0.25 0.69,-0.44 0.2,-0.18 0.35,-0.4 0.46,-0.66 0.1,-0.25 0.15,-0.52 0.15,-0.82 0,-0.29 -0.05,-0.56 -0.15,-0.82 -0.11,-0.25 -0.26,-0.47 -0.46,-0.66 -0.19,-0.18 -0.42,-0.33 -0.69,-0.43 -0.27,-0.11 -0.56,-0.16 -0.88,-0.16 -0.32,0 -0.61,0.05 -0.88,0.16 -0.26,0.1 -0.49,0.25 -0.69,0.43 -0.19,0.19 -0.34,0.41 -0.45,0.66 -0.11,0.26 -0.16,0.53 -0.16,0.82 0,0.3 0.05,0.57 0.16,0.82 0.11,0.26 0.26,0.48 0.45,0.66 0.2,0.19 0.43,0.34 0.69,0.44 0.27,0.11 0.56,0.16 0.88,0.16z"/>
   <path id="_17_16" class="fil1" d="M159.94 35.89c-0.11,0 -0.2,-0.03 -0.27,-0.1 -0.07,-0.07 -0.11,-0.15 -0.11,-0.25l0 -4.59c0,-0.1 0.04,-0.18 0.11,-0.25 0.07,-0.06 0.16,-0.1 0.27,-0.1 0.15,0 0.26,0.07 0.34,0.19l2.3 4.25 -0.24 0 2.24 -4.25c0.08,-0.12 0.2,-0.19 0.34,-0.19 0.11,0 0.2,0.04 0.27,0.1 0.08,0.07 0.12,0.15 0.12,0.25l0 4.59c0,0.1 -0.04,0.18 -0.12,0.25 -0.07,0.07 -0.16,0.1 -0.27,0.1 -0.1,0 -0.2,-0.03 -0.27,-0.1 -0.07,-0.07 -0.11,-0.15 -0.11,-0.25l0 -3.61 0.15 -0.03 -1.93 3.61c-0.08,0.12 -0.19,0.18 -0.33,0.18 -0.16,0 -0.28,-0.07 -0.35,-0.21l-1.9 -3.52 0.14 -0.03 0 3.61c0,0.1 -0.03,0.18 -0.11,0.25 -0.07,0.07 -0.16,0.1 -0.27,0.1z"/>
   <path id="_18_17" class="fil1" d="M167.48 35.89c-0.11,0 -0.2,-0.03 -0.27,-0.1 -0.08,-0.07 -0.11,-0.15 -0.11,-0.25l0 -4.59c0,-0.1 0.03,-0.18 0.11,-0.25 0.07,-0.06 0.16,-0.1 0.27,-0.1l1.47 0c0.37,0 0.69,0.08 0.97,0.23 0.28,0.14 0.51,0.35 0.67,0.61 0.16,0.26 0.24,0.57 0.24,0.92 0,0.33 -0.08,0.62 -0.24,0.88 -0.16,0.25 -0.38,0.46 -0.66,0.6 -0.29,0.14 -0.61,0.22 -0.98,0.22l-1.09 0 0 1.48c0,0.1 -0.04,0.18 -0.11,0.25 -0.07,0.07 -0.16,0.1 -0.27,0.1zm0.38 -2.48l1.09 0c0.22,0 0.42,-0.05 0.59,-0.14 0.18,-0.09 0.31,-0.21 0.41,-0.37 0.1,-0.16 0.14,-0.34 0.14,-0.54 0,-0.23 -0.04,-0.42 -0.14,-0.58 -0.09,-0.17 -0.23,-0.3 -0.4,-0.39 -0.18,-0.09 -0.38,-0.14 -0.6,-0.14l-1.09 0 0 2.16z"/>
   <path id="_19_18" class="fil1" d="M171.55 35.89c-0.14,0 -0.24,-0.05 -0.32,-0.16 -0.07,-0.11 -0.08,-0.22 -0.02,-0.35l2.07 -4.54c0.07,-0.16 0.19,-0.24 0.36,-0.24 0.17,0 0.29,0.08 0.35,0.24l2.08 4.56c0.05,0.12 0.04,0.24 -0.03,0.34 -0.07,0.1 -0.18,0.15 -0.32,0.15 -0.07,0 -0.14,-0.02 -0.21,-0.06 -0.06,-0.03 -0.11,-0.09 -0.14,-0.16l-1.82 -4.17 0.2 0 -1.85 4.17c-0.03,0.08 -0.08,0.13 -0.15,0.17 -0.07,0.03 -0.13,0.05 -0.2,0.05zm0.39 -1.16l0.29 -0.59 2.88 0 0.3 0.59 -3.47 0z"/>
   <path id="_20_19" class="fil1" d="M177.64 35.89c-0.11,0 -0.2,-0.03 -0.27,-0.1 -0.07,-0.07 -0.11,-0.15 -0.11,-0.25l0 -4.59c0,-0.1 0.04,-0.18 0.11,-0.25 0.07,-0.06 0.16,-0.1 0.27,-0.1 0.12,0 0.21,0.04 0.29,0.13l3.21 3.93 0 -3.71c0,-0.1 0.03,-0.18 0.11,-0.25 0.07,-0.06 0.16,-0.1 0.27,-0.1 0.11,0 0.2,0.04 0.27,0.1 0.07,0.07 0.1,0.15 0.1,0.25l0 4.59c0,0.1 -0.03,0.18 -0.1,0.25 -0.07,0.07 -0.16,0.1 -0.27,0.1 -0.05,0 -0.1,-0.01 -0.16,-0.03 -0.06,-0.02 -0.1,-0.05 -0.14,-0.09l-3.2 -3.93 0 3.7c0,0.1 -0.03,0.18 -0.11,0.25 -0.07,0.07 -0.16,0.1 -0.27,0.1z"/>
   <path id="_21_20" class="fil1" d="M185.4 35.89c-0.1,0 -0.19,-0.03 -0.26,-0.1 -0.07,-0.07 -0.11,-0.15 -0.11,-0.25l0 -1.58 -1.96 -2.81c-0.07,-0.09 -0.09,-0.18 -0.08,-0.27 0.02,-0.08 0.06,-0.15 0.13,-0.2 0.07,-0.05 0.16,-0.08 0.25,-0.08 0.08,0 0.15,0.02 0.2,0.05 0.05,0.04 0.09,0.09 0.14,0.15l1.86 2.73 -0.29 0 1.89 -2.76c0.04,-0.05 0.09,-0.09 0.14,-0.12 0.06,-0.03 0.12,-0.05 0.2,-0.05 0.09,0 0.16,0.03 0.22,0.09 0.06,0.05 0.1,0.12 0.11,0.21 0.01,0.08 -0.02,0.17 -0.08,0.25l-1.97 2.81 0 1.58c0,0.1 -0.04,0.18 -0.11,0.25 -0.08,0.07 -0.17,0.1 -0.28,0.1z"/>
   <path class="fil2" d="M31.9 41.19c3.07,-1.51 5.88,-3.34 8.36,-5.39l1.99 1.98 0 -7.33 -7.34 0 1.99 1.99c-0.19,0.2 -0.42,0.36 -0.7,0.5 -0.3,0.19 -0.61,0.37 -0.92,0.53l-8.55 0 7.54 -21.12 7.54 0 5.61 15.7c3.99,-5.83 5.61,-12.2 3.88,-17.55 -3.26,-10.1 -17.24,-12.72 -31.21,-5.87 -1.91,0.93 -3.72,2 -5.42,3.16l-2.78 -2.78 0 4.87 0 2.47 5.99 0 1.35 0 2.54 0 3.14 0 2.89 0 0 10.56c0,7.03 -3.01,10.56 -9.05,10.56l-2.21 0 0 -6.04 2.21 0c2.02,0 3.02,-1.51 3.02,-4.52l0 -4.53 -2.54 0 -1.35 0 -3.93 0 0 15.09 -6.04 0 0 -15.09 -3.75 0c-3.69,5.66 -5.14,11.77 -3.47,16.93 3.26,10.1 17.24,12.73 31.21,5.88zm-7.51 -36.43l5.22 0 0 5.22 -5.22 0 0 -5.22zm13.65 13.92l-2.06 5.73 4.11 0 -2.05 -5.73z"/>
  </g>
 </g>
</svg>
